<svg width="696" height="110" viewBox="0 0 696 110" fill="none" xmlns="http://www.w3.org/2000/svg">
<path d="M2.408 36V2.4H9.176L19.688 23.904L30.2 2.4H36.92V36H32.168V8.544L19.64 33.6L7.112 8.544V36H2.408ZM52.835 36.432C51.075 36.432 49.523 36.128 48.179 35.52C46.835 34.88 45.779 34 45.011 32.88C44.243 31.76 43.859 30.464 43.859 28.992C43.859 26.688 44.739 24.88 46.499 23.568C48.259 22.224 50.675 21.552 53.747 21.552C56.147 21.552 58.371 22.016 60.419 22.944V20.352C60.419 18.592 59.907 17.28 58.883 16.416C57.891 15.552 56.419 15.12 54.467 15.12C53.347 15.12 52.179 15.296 50.963 15.648C49.747 15.968 48.387 16.48 46.883 17.184L45.107 13.584C46.963 12.72 48.691 12.096 50.291 11.712C51.891 11.296 53.507 11.088 55.139 11.088C58.307 11.088 60.755 11.84 62.483 13.344C64.243 14.848 65.123 16.992 65.123 19.776V36H60.419V33.888C59.331 34.752 58.163 35.392 56.915 35.808C55.667 36.224 54.307 36.432 52.835 36.432ZM48.467 28.896C48.467 30.08 48.963 31.04 49.955 31.776C50.979 32.48 52.307 32.832 53.939 32.832C55.219 32.832 56.387 32.656 57.443 32.304C58.531 31.92 59.523 31.328 60.419 30.528V26.4C59.491 25.856 58.515 25.472 57.491 25.248C56.499 24.992 55.379 24.864 54.131 24.864C52.371 24.864 50.979 25.232 49.955 25.968C48.963 26.672 48.467 27.648 48.467 28.896ZM73.0539 36V11.568H77.8539V14.064C79.7419 12.08 82.1899 11.088 85.1979 11.088C87.0859 11.088 88.7339 11.488 90.1419 12.288C91.5819 13.088 92.7019 14.208 93.5019 15.648C94.3339 17.088 94.7499 18.752 94.7499 20.64V36H89.9499V21.456C89.9499 19.536 89.4059 18.032 88.3179 16.944C87.2619 15.824 85.7739 15.264 83.8539 15.264C82.5739 15.264 81.4219 15.536 80.3979 16.08C79.3739 16.624 78.5259 17.408 77.8539 18.432V36H73.0539ZM102.688 36V11.568H107.488V36H102.688ZM105.088 7.632C104.288 7.632 103.6 7.344 103.024 6.768C102.448 6.16 102.16 5.456 102.16 4.656C102.16 3.824 102.448 3.136 103.024 2.592C103.6 2.016 104.288 1.728 105.088 1.728C105.92 1.728 106.624 2.016 107.2 2.592C107.776 3.136 108.064 3.824 108.064 4.656C108.064 5.456 107.776 6.16 107.2 6.768C106.624 7.344 105.92 7.632 105.088 7.632ZM119.189 36V15.6H113.525V11.568H119.189V7.872C119.189 5.312 119.893 3.36 121.301 2.016C122.741 0.671998 124.789 -2.86102e-06 127.445 -2.86102e-06C128.117 -2.86102e-06 128.741 0.0479975 129.317 0.143998C129.925 0.207997 130.469 0.319998 130.949 0.48V4.608C130.373 4.448 129.861 4.336 129.413 4.272C128.965 4.176 128.469 4.128 127.925 4.128C126.581 4.128 125.573 4.448 124.901 5.088C124.261 5.696 123.941 6.672 123.941 8.016V11.568H130.949V15.6H123.941V36H119.189ZM147.607 36.432C145.207 36.432 143.031 35.872 141.079 34.752C139.159 33.632 137.623 32.112 136.471 30.192C135.351 28.272 134.791 26.128 134.791 23.76C134.791 21.424 135.335 19.312 136.423 17.424C137.511 15.504 138.983 13.984 140.839 12.864C142.695 11.712 144.759 11.136 147.031 11.136C149.303 11.136 151.319 11.712 153.079 12.864C154.839 13.984 156.231 15.52 157.255 17.472C158.311 19.392 158.839 21.568 158.839 24V25.344H139.591C139.847 26.688 140.343 27.888 141.079 28.944C141.847 30 142.807 30.832 143.959 31.44C145.143 32.048 146.423 32.352 147.799 32.352C148.983 32.352 150.119 32.176 151.207 31.824C152.327 31.44 153.255 30.896 153.991 30.192L157.062 33.216C155.623 34.304 154.135 35.12 152.599 35.664C151.095 36.176 149.431 36.432 147.607 36.432ZM139.639 21.744H154.087C153.895 20.464 153.447 19.344 152.743 18.384C152.071 17.392 151.223 16.624 150.199 16.08C149.207 15.504 148.119 15.216 146.935 15.216C145.719 15.216 144.599 15.488 143.575 16.032C142.551 16.576 141.687 17.344 140.983 18.336C140.311 19.296 139.863 20.432 139.639 21.744ZM174.444 36.48C172.332 36.48 170.348 36.176 168.492 35.568C166.668 34.928 165.084 34.032 163.74 32.88L166.38 29.712C167.628 30.704 168.908 31.472 170.22 32.016C171.564 32.528 172.924 32.784 174.3 32.784C176.028 32.784 177.436 32.448 178.524 31.776C179.612 31.104 180.156 30.224 180.156 29.136C180.156 28.24 179.836 27.536 179.196 27.024C178.556 26.512 177.564 26.16 176.22 25.968L171.804 25.344C169.372 24.992 167.548 24.24 166.332 23.088C165.116 21.936 164.508 20.4 164.508 18.48C164.508 17.008 164.908 15.728 165.708 14.64C166.508 13.52 167.628 12.656 169.068 12.048C170.508 11.408 172.188 11.088 174.108 11.088C175.868 11.088 177.564 11.344 179.196 11.856C180.828 12.368 182.396 13.168 183.9 14.256L181.452 17.424C180.108 16.528 178.796 15.872 177.516 15.456C176.268 15.04 175.004 14.832 173.724 14.832C172.252 14.832 171.068 15.152 170.172 15.792C169.276 16.4 168.828 17.2 168.828 18.192C168.828 19.088 169.132 19.792 169.74 20.304C170.38 20.784 171.42 21.12 172.86 21.312L177.276 21.936C179.708 22.288 181.548 23.04 182.796 24.192C184.044 25.312 184.668 26.832 184.668 28.752C184.668 30.224 184.22 31.552 183.324 32.736C182.428 33.888 181.212 34.8 179.676 35.472C178.14 36.144 176.396 36.48 174.444 36.48ZM200.752 36.432C198.384 36.432 196.576 35.888 195.328 34.8C194.08 33.68 193.456 32.064 193.456 29.952V15.6H188.272V11.568H193.456V5.328L198.208 4.176V11.568H205.408V15.6H198.208V28.848C198.208 30.096 198.48 30.992 199.024 31.536C199.6 32.048 200.528 32.304 201.808 32.304C202.48 32.304 203.072 32.256 203.584 32.16C204.128 32.064 204.704 31.92 205.312 31.728V35.76C204.672 35.984 203.92 36.144 203.056 36.24C202.224 36.368 201.456 36.432 200.752 36.432ZM223.776 36V11.568H228.576V36H223.776ZM226.176 7.632C225.376 7.632 224.688 7.344 224.112 6.768C223.536 6.16 223.248 5.456 223.248 4.656C223.248 3.824 223.536 3.136 224.112 2.592C224.688 2.016 225.376 1.728 226.176 1.728C227.008 1.728 227.712 2.016 228.288 2.592C228.864 3.136 229.152 3.824 229.152 4.656C229.152 5.456 228.864 6.16 228.288 6.768C227.712 7.344 227.008 7.632 226.176 7.632ZM245.029 36.48C242.917 36.48 240.933 36.176 239.077 35.568C237.253 34.928 235.669 34.032 234.325 32.88L236.965 29.712C238.213 30.704 239.493 31.472 240.805 32.016C242.149 32.528 243.509 32.784 244.885 32.784C246.613 32.784 248.021 32.448 249.109 31.776C250.197 31.104 250.741 30.224 250.741 29.136C250.741 28.24 250.421 27.536 249.781 27.024C249.141 26.512 248.149 26.16 246.805 25.968L242.389 25.344C239.957 24.992 238.133 24.24 236.917 23.088C235.701 21.936 235.093 20.4 235.093 18.48C235.093 17.008 235.493 15.728 236.293 14.64C237.093 13.52 238.213 12.656 239.653 12.048C241.093 11.408 242.773 11.088 244.693 11.088C246.453 11.088 248.149 11.344 249.781 11.856C251.413 12.368 252.981 13.168 254.485 14.256L252.037 17.424C250.693 16.528 249.381 15.872 248.101 15.456C246.853 15.04 245.589 14.832 244.309 14.832C242.837 14.832 241.653 15.152 240.757 15.792C239.861 16.4 239.413 17.2 239.413 18.192C239.413 19.088 239.717 19.792 240.325 20.304C240.965 20.784 242.005 21.12 243.445 21.312L247.861 21.936C250.293 22.288 252.133 23.04 253.381 24.192C254.629 25.312 255.253 26.832 255.253 28.752C255.253 30.224 254.805 31.552 253.909 32.736C253.013 33.888 251.797 34.8 250.261 35.472C248.725 36.144 246.981 36.48 245.029 36.48ZM281.501 36.432C279.741 36.432 278.189 36.128 276.845 35.52C275.501 34.88 274.445 34 273.677 32.88C272.909 31.76 272.525 30.464 272.525 28.992C272.525 26.688 273.405 24.88 275.165 23.568C276.925 22.224 279.341 21.552 282.413 21.552C284.813 21.552 287.037 22.016 289.085 22.944V20.352C289.085 18.592 288.573 17.28 287.549 16.416C286.557 15.552 285.085 15.12 283.133 15.12C282.013 15.12 280.845 15.296 279.629 15.648C278.413 15.968 277.053 16.48 275.549 17.184L273.773 13.584C275.629 12.72 277.357 12.096 278.957 11.712C280.557 11.296 282.173 11.088 283.805 11.088C286.973 11.088 289.421 11.84 291.149 13.344C292.909 14.848 293.789 16.992 293.789 19.776V36H289.085V33.888C287.997 34.752 286.829 35.392 285.581 35.808C284.333 36.224 282.973 36.432 281.501 36.432ZM277.133 28.896C277.133 30.08 277.629 31.04 278.621 31.776C279.645 32.48 280.973 32.832 282.605 32.832C283.885 32.832 285.053 32.656 286.109 32.304C287.197 31.92 288.189 31.328 289.085 30.528V26.4C288.157 25.856 287.181 25.472 286.157 25.248C285.165 24.992 284.045 24.864 282.797 24.864C281.037 24.864 279.645 25.232 278.621 25.968C277.629 26.672 277.133 27.648 277.133 28.896ZM314.151 36V11.568H318.951V14.064C320.839 12.08 323.287 11.088 326.295 11.088C328.183 11.088 329.831 11.488 331.239 12.288C332.679 13.088 333.799 14.208 334.599 15.648C335.431 17.088 335.847 18.752 335.847 20.64V36H331.047V21.456C331.047 19.536 330.503 18.032 329.415 16.944C328.359 15.824 326.871 15.264 324.951 15.264C323.671 15.264 322.519 15.536 321.495 16.08C320.471 16.624 319.623 17.408 318.951 18.432V36H314.151ZM355.497 36.432C353.097 36.432 350.921 35.872 348.969 34.752C347.049 33.632 345.513 32.112 344.361 30.192C343.241 28.272 342.681 26.128 342.681 23.76C342.681 21.424 343.225 19.312 344.313 17.424C345.401 15.504 346.873 13.984 348.729 12.864C350.585 11.712 352.649 11.136 354.921 11.136C357.193 11.136 359.209 11.712 360.969 12.864C362.729 13.984 364.121 15.52 365.145 17.472C366.201 19.392 366.729 21.568 366.729 24V25.344H347.481C347.737 26.688 348.233 27.888 348.969 28.944C349.737 30 350.697 30.832 351.849 31.44C353.033 32.048 354.313 32.352 355.689 32.352C356.873 32.352 358.009 32.176 359.097 31.824C360.217 31.44 361.145 30.896 361.881 30.192L364.953 33.216C363.513 34.304 362.025 35.12 360.489 35.664C358.985 36.176 357.321 36.432 355.497 36.432ZM347.529 21.744H361.977C361.785 20.464 361.337 19.344 360.633 18.384C359.961 17.392 359.113 16.624 358.089 16.08C357.097 15.504 356.009 15.216 354.825 15.216C353.609 15.216 352.489 15.488 351.465 16.032C350.441 16.576 349.577 17.344 348.873 18.336C348.201 19.296 347.753 20.432 347.529 21.744ZM377.792 36L370.976 11.568H375.632L380.384 29.52L385.952 11.568H390.08L395.648 29.52L400.4 11.568H404.912L398.048 36H393.44L387.968 18.096L382.448 36H377.792ZM410.741 36V2.4L415.541 1.488V13.872C417.589 12.08 420.069 11.184 422.981 11.184C425.285 11.184 427.365 11.744 429.221 12.864C431.109 13.984 432.597 15.488 433.685 17.376C434.773 19.264 435.317 21.392 435.317 23.76C435.317 26.128 434.757 28.272 433.637 30.192C432.549 32.08 431.061 33.584 429.173 34.704C427.317 35.824 425.221 36.384 422.885 36.384C421.541 36.384 420.229 36.176 418.949 35.76C417.701 35.312 416.549 34.688 415.493 33.888V36H410.741ZM422.357 32.208C423.925 32.208 425.317 31.84 426.533 31.104C427.781 30.368 428.773 29.376 429.509 28.128C430.245 26.848 430.613 25.408 430.613 23.808C430.613 22.208 430.245 20.768 429.509 19.488C428.773 18.208 427.781 17.2 426.533 16.464C425.317 15.728 423.925 15.36 422.357 15.36C420.981 15.36 419.701 15.616 418.517 16.128C417.333 16.64 416.341 17.36 415.541 18.288V29.328C416.341 30.224 417.333 30.928 418.517 31.44C419.733 31.952 421.013 32.208 422.357 32.208ZM453.914 36.48C451.546 36.48 449.386 35.92 447.434 34.8C445.514 33.68 443.994 32.16 442.874 30.24C441.754 28.32 441.194 26.176 441.194 23.808C441.194 21.44 441.754 19.296 442.874 17.376C443.994 15.456 445.514 13.936 447.434 12.816C449.386 11.664 451.546 11.088 453.914 11.088C456.314 11.088 458.474 11.664 460.394 12.816C462.314 13.936 463.834 15.456 464.954 17.376C466.074 19.296 466.634 21.44 466.634 23.808C466.634 26.176 466.074 28.32 464.954 30.24C463.834 32.16 462.314 33.68 460.394 34.8C458.474 35.92 456.314 36.48 453.914 36.48ZM453.914 32.256C455.418 32.256 456.778 31.888 457.994 31.152C459.21 30.384 460.17 29.36 460.874 28.08C461.578 26.8 461.93 25.36 461.93 23.76C461.93 22.192 461.562 20.784 460.826 19.536C460.122 18.256 459.162 17.232 457.946 16.464C456.762 15.696 455.418 15.312 453.914 15.312C452.41 15.312 451.05 15.696 449.834 16.464C448.65 17.232 447.69 18.256 446.954 19.536C446.25 20.784 445.898 22.192 445.898 23.76C445.898 25.36 446.25 26.8 446.954 28.08C447.658 29.36 448.618 30.384 449.834 31.152C451.05 31.888 452.41 32.256 453.914 32.256ZM473.573 36V11.568H478.373V14.688C479.141 13.536 480.085 12.64 481.205 12C482.357 11.328 483.653 10.992 485.093 10.992C486.085 11.024 486.901 11.168 487.541 11.424V15.744C487.093 15.552 486.629 15.424 486.149 15.36C485.669 15.264 485.189 15.216 484.709 15.216C483.301 15.216 482.053 15.6 480.965 16.368C479.877 17.104 479.013 18.192 478.373 19.632V36H473.573ZM493.785 36V11.568H498.585V14.064C500.473 12.08 502.921 11.088 505.929 11.088C507.817 11.088 509.465 11.488 510.873 12.288C512.313 13.088 513.433 14.208 514.233 15.648C515.065 17.088 515.481 18.752 515.481 20.64V36H510.681V21.456C510.681 19.536 510.137 18.032 509.049 16.944C507.993 15.824 506.505 15.264 504.585 15.264C503.305 15.264 502.153 15.536 501.129 16.08C500.105 16.624 499.257 17.408 498.585 18.432V36H493.785ZM546.315 36.432C543.947 36.432 542.139 35.888 540.891 34.8C539.643 33.68 539.019 32.064 539.019 29.952V15.6H533.835V11.568H539.019V5.328L543.771 4.176V11.568H550.971V15.6H543.771V28.848C543.771 30.096 544.043 30.992 544.587 31.536C545.163 32.048 546.091 32.304 547.371 32.304C548.043 32.304 548.635 32.256 549.147 32.16C549.691 32.064 550.267 31.92 550.875 31.728V35.76C550.235 35.984 549.483 36.144 548.619 36.24C547.787 36.368 547.019 36.432 546.315 36.432ZM556.907 36V2.4L561.707 1.344V14.064C563.595 12.08 566.043 11.088 569.051 11.088C570.939 11.088 572.587 11.488 573.995 12.288C575.435 13.088 576.555 14.208 577.355 15.648C578.187 17.088 578.603 18.752 578.603 20.64V36H573.803V21.456C573.803 19.536 573.259 18.032 572.171 16.944C571.083 15.824 569.595 15.264 567.707 15.264C566.427 15.264 565.275 15.536 564.251 16.08C563.227 16.624 562.379 17.408 561.707 18.432V36H556.907ZM598.253 36.432C595.853 36.432 593.677 35.872 591.725 34.752C589.805 33.632 588.269 32.112 587.117 30.192C585.997 28.272 585.437 26.128 585.437 23.76C585.437 21.424 585.981 19.312 587.069 17.424C588.157 15.504 589.629 13.984 591.485 12.864C593.341 11.712 595.405 11.136 597.677 11.136C599.949 11.136 601.965 11.712 603.725 12.864C605.485 13.984 606.877 15.52 607.901 17.472C608.957 19.392 609.485 21.568 609.485 24V25.344H590.237C590.493 26.688 590.989 27.888 591.725 28.944C592.493 30 593.453 30.832 594.605 31.44C595.789 32.048 597.069 32.352 598.445 32.352C599.629 32.352 600.765 32.176 601.853 31.824C602.973 31.44 603.901 30.896 604.637 30.192L607.709 33.216C606.269 34.304 604.781 35.12 603.245 35.664C601.741 36.176 600.077 36.432 598.253 36.432ZM590.285 21.744H604.733C604.541 20.464 604.093 19.344 603.389 18.384C602.717 17.392 601.869 16.624 600.845 16.08C599.853 15.504 598.765 15.216 597.581 15.216C596.365 15.216 595.245 15.488 594.221 16.032C593.197 16.576 592.333 17.344 591.629 18.336C590.957 19.296 590.509 20.432 590.285 21.744ZM616.457 36V11.568H621.257V13.92C623.081 12.032 625.369 11.088 628.121 11.088C629.785 11.088 631.257 11.456 632.537 12.192C633.849 12.928 634.889 13.92 635.657 15.168C636.681 13.824 637.881 12.816 639.257 12.144C640.633 11.44 642.185 11.088 643.913 11.088C645.737 11.088 647.321 11.488 648.665 12.288C650.041 13.088 651.113 14.208 651.881 15.648C652.681 17.088 653.081 18.752 653.081 20.64V36H648.281V21.456C648.281 19.536 647.769 18.032 646.745 16.944C645.753 15.824 644.393 15.264 642.665 15.264C641.481 15.264 640.409 15.536 639.449 16.08C638.489 16.624 637.657 17.456 636.953 18.576C637.017 18.896 637.065 19.232 637.097 19.584C637.129 19.936 637.145 20.288 637.145 20.64V36H632.393V21.456C632.393 19.536 631.881 18.032 630.857 16.944C629.865 15.824 628.505 15.264 626.777 15.264C625.625 15.264 624.585 15.52 623.657 16.032C622.729 16.512 621.929 17.248 621.257 18.24V36H616.457ZM672.71 36.432C670.31 36.432 668.134 35.872 666.182 34.752C664.262 33.632 662.726 32.112 661.574 30.192C660.454 28.272 659.894 26.128 659.894 23.76C659.894 21.424 660.438 19.312 661.526 17.424C662.614 15.504 664.086 13.984 665.942 12.864C667.798 11.712 669.862 11.136 672.134 11.136C674.406 11.136 676.422 11.712 678.182 12.864C679.942 13.984 681.334 15.52 682.358 17.472C683.414 19.392 683.942 21.568 683.942 24V25.344H664.694C664.95 26.688 665.446 27.888 666.182 28.944C666.95 30 667.91 30.832 669.062 31.44C670.246 32.048 671.526 32.352 672.902 32.352C674.086 32.352 675.222 32.176 676.31 31.824C677.43 31.44 678.358 30.896 679.094 30.192L682.166 33.216C680.726 34.304 679.238 35.12 677.702 35.664C676.198 36.176 674.534 36.432 672.71 36.432ZM664.742 21.744H679.19C678.998 20.464 678.55 19.344 677.846 18.384C677.174 17.392 676.326 16.624 675.302 16.08C674.31 15.504 673.222 15.216 672.038 15.216C670.822 15.216 669.702 15.488 668.678 16.032C667.654 16.576 666.79 17.344 666.086 18.336C665.414 19.296 664.966 20.432 664.742 21.744ZM692.628 36.336C691.796 36.336 691.076 36.048 690.468 35.472C689.892 34.864 689.604 34.144 689.604 33.312C689.604 32.48 689.892 31.776 690.468 31.2C691.076 30.592 691.796 30.288 692.628 30.288C693.46 30.288 694.164 30.592 694.74 31.2C695.348 31.776 695.652 32.48 695.652 33.312C695.652 34.144 695.348 34.864 694.74 35.472C694.164 36.048 693.46 36.336 692.628 36.336ZM18.584 100.528C16.088 100.528 13.768 100.096 11.624 99.232C9.512 98.336 7.64 97.104 6.008 95.536C4.408 93.936 3.16 92.096 2.264 90.016C1.4 87.904 0.968 85.632 0.968 83.2C0.968 80.768 1.4 78.512 2.264 76.432C3.16 74.32 4.408 72.48 6.008 70.912C7.64 69.312 9.528 68.08 11.672 67.216C13.816 66.32 16.12 65.872 18.584 65.872C20.344 65.872 22.056 66.112 23.72 66.592C25.416 67.04 26.968 67.696 28.376 68.56C29.816 69.424 31.064 70.464 32.12 71.68L28.76 75.136C27.512 73.632 25.992 72.496 24.2 71.728C22.408 70.928 20.536 70.528 18.584 70.528C16.792 70.528 15.128 70.848 13.592 71.488C12.088 72.128 10.776 73.024 9.656 74.176C8.536 75.296 7.656 76.624 7.016 78.16C6.408 79.696 6.104 81.376 6.104 83.2C6.104 84.992 6.408 86.656 7.016 88.192C7.656 89.728 8.552 91.072 9.704 92.224C10.856 93.376 12.2 94.272 13.736 94.912C15.272 95.552 16.936 95.872 18.728 95.872C20.68 95.872 22.52 95.488 24.248 94.72C26.008 93.92 27.496 92.8 28.712 91.36L32.024 94.72C30.904 95.904 29.624 96.944 28.184 97.84C26.776 98.704 25.24 99.376 23.576 99.856C21.944 100.304 20.28 100.528 18.584 100.528ZM38.7789 100V66.4L43.5789 65.488V100H38.7789ZM63.344 100.432C60.944 100.432 58.768 99.872 56.816 98.752C54.896 97.632 53.36 96.112 52.208 94.192C51.088 92.272 50.528 90.128 50.528 87.76C50.528 85.424 51.072 83.312 52.16 81.424C53.248 79.504 54.72 77.984 56.576 76.864C58.432 75.712 60.496 75.136 62.768 75.136C65.04 75.136 67.056 75.712 68.816 76.864C70.576 77.984 71.968 79.52 72.992 81.472C74.048 83.392 74.576 85.568 74.576 88V89.344H55.328C55.584 90.688 56.08 91.888 56.816 92.944C57.584 94 58.544 94.832 59.696 95.44C60.88 96.048 62.16 96.352 63.536 96.352C64.72 96.352 65.856 96.176 66.944 95.824C68.064 95.44 68.992 94.896 69.728 94.192L72.8 97.216C71.36 98.304 69.872 99.12 68.336 99.664C66.832 100.176 65.168 100.432 63.344 100.432ZM55.376 85.744H69.824C69.632 84.464 69.184 83.344 68.48 82.384C67.808 81.392 66.96 80.624 65.936 80.08C64.944 79.504 63.856 79.216 62.672 79.216C61.456 79.216 60.336 79.488 59.312 80.032C58.288 80.576 57.424 81.344 56.72 82.336C56.048 83.296 55.6 84.432 55.376 85.744ZM88.9475 100.432C87.1875 100.432 85.6355 100.128 84.2915 99.52C82.9475 98.88 81.8915 98 81.1235 96.88C80.3555 95.76 79.9715 94.464 79.9715 92.992C79.9715 90.688 80.8515 88.88 82.6115 87.568C84.3715 86.224 86.7875 85.552 89.8595 85.552C92.2595 85.552 94.4835 86.016 96.5315 86.944V84.352C96.5315 82.592 96.0195 81.28 94.9955 80.416C94.0035 79.552 92.5315 79.12 90.5795 79.12C89.4595 79.12 88.2915 79.296 87.0755 79.648C85.8595 79.968 84.4995 80.48 82.9955 81.184L81.2195 77.584C83.0755 76.72 84.8035 76.096 86.4035 75.712C88.0035 75.296 89.6195 75.088 91.2515 75.088C94.4195 75.088 96.8675 75.84 98.5955 77.344C100.355 78.848 101.235 80.992 101.235 83.776V100H96.5315V97.888C95.4435 98.752 94.2755 99.392 93.0275 99.808C91.7795 100.224 90.4195 100.432 88.9475 100.432ZM84.5795 92.896C84.5795 94.08 85.0755 95.04 86.0675 95.776C87.0915 96.48 88.4195 96.832 90.0515 96.832C91.3315 96.832 92.4995 96.656 93.5555 96.304C94.6435 95.92 95.6355 95.328 96.5315 94.528V90.4C95.6035 89.856 94.6275 89.472 93.6035 89.248C92.6115 88.992 91.4915 88.864 90.2435 88.864C88.4835 88.864 87.0915 89.232 86.0675 89.968C85.0755 90.672 84.5795 91.648 84.5795 92.896ZM109.166 100V75.568H113.966V78.064C115.854 76.08 118.302 75.088 121.31 75.088C123.198 75.088 124.846 75.488 126.254 76.288C127.694 77.088 128.814 78.208 129.614 79.648C130.446 81.088 130.862 82.752 130.862 84.64V100H126.062V85.456C126.062 83.536 125.518 82.032 124.43 80.944C123.374 79.824 121.886 79.264 119.966 79.264C118.686 79.264 117.534 79.536 116.51 80.08C115.486 80.624 114.638 81.408 113.966 82.432V100H109.166ZM137.265 106.864L140.241 95.68H145.329L140.913 106.864H137.265ZM174.032 100.48C171.92 100.48 169.936 100.176 168.08 99.568C166.256 98.928 164.672 98.032 163.328 96.88L165.968 93.712C167.216 94.704 168.496 95.472 169.808 96.016C171.152 96.528 172.512 96.784 173.888 96.784C175.616 96.784 177.024 96.448 178.112 95.776C179.2 95.104 179.744 94.224 179.744 93.136C179.744 92.24 179.424 91.536 178.784 91.024C178.144 90.512 177.152 90.16 175.808 89.968L171.392 89.344C168.96 88.992 167.136 88.24 165.92 87.088C164.704 85.936 164.096 84.4 164.096 82.48C164.096 81.008 164.496 79.728 165.296 78.64C166.096 77.52 167.216 76.656 168.656 76.048C170.096 75.408 171.776 75.088 173.696 75.088C175.456 75.088 177.152 75.344 178.784 75.856C180.416 76.368 181.984 77.168 183.488 78.256L181.04 81.424C179.696 80.528 178.384 79.872 177.104 79.456C175.856 79.04 174.592 78.832 173.312 78.832C171.84 78.832 170.656 79.152 169.76 79.792C168.864 80.4 168.416 81.2 168.416 82.192C168.416 83.088 168.72 83.792 169.328 84.304C169.968 84.784 171.008 85.12 172.448 85.312L176.864 85.936C179.296 86.288 181.136 87.04 182.384 88.192C183.632 89.312 184.256 90.832 184.256 92.752C184.256 94.224 183.808 95.552 182.912 96.736C182.016 97.888 180.8 98.8 179.264 99.472C177.728 100.144 175.984 100.48 174.032 100.48ZM190.344 100V75.568H195.144V100H190.344ZM192.744 71.632C191.944 71.632 191.256 71.344 190.68 70.768C190.104 70.16 189.816 69.456 189.816 68.656C189.816 67.824 190.104 67.136 190.68 66.592C191.256 66.016 191.944 65.728 192.744 65.728C193.576 65.728 194.28 66.016 194.856 66.592C195.432 67.136 195.72 67.824 195.72 68.656C195.72 69.456 195.432 70.16 194.856 70.768C194.28 71.344 193.576 71.632 192.744 71.632ZM203.198 100V75.568H207.998V77.92C209.822 76.032 212.11 75.088 214.862 75.088C216.526 75.088 217.998 75.456 219.278 76.192C220.59 76.928 221.63 77.92 222.398 79.168C223.422 77.824 224.622 76.816 225.998 76.144C227.374 75.44 228.926 75.088 230.654 75.088C232.478 75.088 234.062 75.488 235.406 76.288C236.782 77.088 237.854 78.208 238.622 79.648C239.422 81.088 239.822 82.752 239.822 84.64V100H235.022V85.456C235.022 83.536 234.51 82.032 233.486 80.944C232.494 79.824 231.134 79.264 229.406 79.264C228.222 79.264 227.15 79.536 226.19 80.08C225.23 80.624 224.398 81.456 223.694 82.576C223.758 82.896 223.806 83.232 223.838 83.584C223.87 83.936 223.886 84.288 223.886 84.64V100H219.134V85.456C219.134 83.536 218.622 82.032 217.598 80.944C216.606 79.824 215.246 79.264 213.518 79.264C212.366 79.264 211.326 79.52 210.398 80.032C209.47 80.512 208.67 81.248 207.998 82.24V100H203.198ZM247.738 109.792V75.568H252.49V77.92C254.538 76.096 257.034 75.184 259.978 75.184C262.282 75.184 264.362 75.744 266.218 76.864C268.106 77.984 269.594 79.488 270.682 81.376C271.77 83.264 272.314 85.392 272.314 87.76C272.314 90.128 271.754 92.272 270.634 94.192C269.546 96.08 268.058 97.584 266.17 98.704C264.314 99.824 262.218 100.384 259.882 100.384C258.538 100.384 257.242 100.176 255.994 99.76C254.746 99.312 253.594 98.688 252.538 97.888V109.792H247.738ZM259.354 96.208C260.922 96.208 262.314 95.84 263.53 95.104C264.778 94.368 265.77 93.376 266.506 92.128C267.242 90.848 267.61 89.408 267.61 87.808C267.61 86.208 267.242 84.768 266.506 83.488C265.77 82.208 264.778 81.2 263.53 80.464C262.314 79.728 260.922 79.36 259.354 79.36C257.978 79.36 256.698 79.616 255.514 80.128C254.33 80.64 253.338 81.36 252.538 82.288V93.328C253.338 94.224 254.33 94.928 255.514 95.44C256.73 95.952 258.01 96.208 259.354 96.208ZM279.294 100V66.4L284.094 65.488V100H279.294ZM303.86 100.432C301.46 100.432 299.284 99.872 297.332 98.752C295.412 97.632 293.876 96.112 292.724 94.192C291.604 92.272 291.044 90.128 291.044 87.76C291.044 85.424 291.588 83.312 292.676 81.424C293.764 79.504 295.236 77.984 297.092 76.864C298.948 75.712 301.012 75.136 303.284 75.136C305.556 75.136 307.572 75.712 309.332 76.864C311.092 77.984 312.484 79.52 313.508 81.472C314.564 83.392 315.092 85.568 315.092 88V89.344H295.844C296.1 90.688 296.596 91.888 297.332 92.944C298.1 94 299.06 94.832 300.212 95.44C301.396 96.048 302.676 96.352 304.052 96.352C305.236 96.352 306.372 96.176 307.46 95.824C308.58 95.44 309.508 94.896 310.244 94.192L313.316 97.216C311.876 98.304 310.388 99.12 308.852 99.664C307.348 100.176 305.684 100.432 303.86 100.432ZM295.892 85.744H310.34C310.148 84.464 309.7 83.344 308.996 82.384C308.324 81.392 307.476 80.624 306.452 80.08C305.46 79.504 304.372 79.216 303.188 79.216C301.972 79.216 300.852 79.488 299.828 80.032C298.804 80.576 297.94 81.344 297.236 82.336C296.564 83.296 296.116 84.432 295.892 85.744ZM342.223 100.432C340.463 100.432 338.911 100.128 337.567 99.52C336.223 98.88 335.167 98 334.399 96.88C333.631 95.76 333.247 94.464 333.247 92.992C333.247 90.688 334.127 88.88 335.887 87.568C337.647 86.224 340.063 85.552 343.135 85.552C345.535 85.552 347.759 86.016 349.807 86.944V84.352C349.807 82.592 349.295 81.28 348.271 80.416C347.279 79.552 345.807 79.12 343.855 79.12C342.735 79.12 341.567 79.296 340.351 79.648C339.135 79.968 337.775 80.48 336.271 81.184L334.495 77.584C336.351 76.72 338.079 76.096 339.679 75.712C341.279 75.296 342.895 75.088 344.527 75.088C347.695 75.088 350.143 75.84 351.871 77.344C353.631 78.848 354.511 80.992 354.511 83.776V100H349.807V97.888C348.719 98.752 347.551 99.392 346.303 99.808C345.055 100.224 343.695 100.432 342.223 100.432ZM337.855 92.896C337.855 94.08 338.351 95.04 339.343 95.776C340.367 96.48 341.695 96.832 343.327 96.832C344.607 96.832 345.775 96.656 346.831 96.304C347.919 95.92 348.911 95.328 349.807 94.528V90.4C348.879 89.856 347.903 89.472 346.879 89.248C345.887 88.992 344.767 88.864 343.519 88.864C341.759 88.864 340.367 89.232 339.343 89.968C338.351 90.672 337.855 91.648 337.855 92.896ZM362.441 100V75.568H367.241V78.064C369.129 76.08 371.577 75.088 374.585 75.088C376.473 75.088 378.121 75.488 379.529 76.288C380.969 77.088 382.089 78.208 382.889 79.648C383.721 81.088 384.137 82.752 384.137 84.64V100H379.337V85.456C379.337 83.536 378.793 82.032 377.705 80.944C376.649 79.824 375.161 79.264 373.241 79.264C371.961 79.264 370.809 79.536 369.785 80.08C368.761 80.624 367.913 81.408 367.241 82.432V100H362.441ZM403.308 100.384C401.036 100.384 398.956 99.824 397.068 98.704C395.18 97.584 393.692 96.08 392.604 94.192C391.516 92.272 390.972 90.128 390.972 87.76C390.972 85.392 391.516 83.264 392.604 81.376C393.724 79.488 395.228 77.984 397.116 76.864C399.004 75.744 401.1 75.184 403.404 75.184C404.748 75.184 406.044 75.392 407.292 75.808C408.54 76.224 409.692 76.832 410.748 77.632V66.4L415.548 65.488V100H410.796V97.648C408.716 99.472 406.22 100.384 403.308 100.384ZM403.932 96.208C405.34 96.208 406.62 95.952 407.772 95.44C408.956 94.928 409.948 94.192 410.748 93.232V82.24C409.948 81.344 408.956 80.64 407.772 80.128C406.62 79.584 405.34 79.312 403.932 79.312C402.396 79.312 401.004 79.68 399.756 80.416C398.508 81.152 397.516 82.16 396.78 83.44C396.044 84.688 395.676 86.112 395.676 87.712C395.676 89.312 396.044 90.752 396.78 92.032C397.516 93.312 398.508 94.336 399.756 95.104C401.004 95.84 402.396 96.208 403.932 96.208ZM439.711 100V79.6H434.047V75.568H439.711V71.872C439.711 69.312 440.415 67.36 441.823 66.016C443.263 64.672 445.311 64 447.967 64C448.639 64 449.263 64.048 449.839 64.144C450.447 64.208 450.991 64.32 451.471 64.48V68.608C450.895 68.448 450.383 68.336 449.935 68.272C449.487 68.176 448.991 68.128 448.447 68.128C447.103 68.128 446.095 68.448 445.423 69.088C444.783 69.696 444.463 70.672 444.463 72.016V75.568H451.471V79.6H444.463V100H439.711ZM464.473 100.432C462.713 100.432 461.161 100.128 459.817 99.52C458.473 98.88 457.417 98 456.649 96.88C455.881 95.76 455.497 94.464 455.497 92.992C455.497 90.688 456.377 88.88 458.137 87.568C459.897 86.224 462.313 85.552 465.385 85.552C467.785 85.552 470.009 86.016 472.057 86.944V84.352C472.057 82.592 471.545 81.28 470.521 80.416C469.529 79.552 468.057 79.12 466.105 79.12C464.985 79.12 463.817 79.296 462.601 79.648C461.385 79.968 460.025 80.48 458.521 81.184L456.745 77.584C458.601 76.72 460.329 76.096 461.929 75.712C463.529 75.296 465.145 75.088 466.777 75.088C469.945 75.088 472.393 75.84 474.121 77.344C475.881 78.848 476.761 80.992 476.761 83.776V100H472.057V97.888C470.969 98.752 469.801 99.392 468.553 99.808C467.305 100.224 465.945 100.432 464.473 100.432ZM460.105 92.896C460.105 94.08 460.601 95.04 461.593 95.776C462.617 96.48 463.945 96.832 465.577 96.832C466.857 96.832 468.025 96.656 469.081 96.304C470.169 95.92 471.161 95.328 472.057 94.528V90.4C471.129 89.856 470.153 89.472 469.129 89.248C468.137 88.992 467.017 88.864 465.769 88.864C464.009 88.864 462.617 89.232 461.593 89.968C460.601 90.672 460.105 91.648 460.105 92.896ZM493.091 100.48C490.979 100.48 488.995 100.176 487.139 99.568C485.315 98.928 483.731 98.032 482.387 96.88L485.027 93.712C486.275 94.704 487.555 95.472 488.867 96.016C490.211 96.528 491.571 96.784 492.947 96.784C494.675 96.784 496.083 96.448 497.171 95.776C498.259 95.104 498.803 94.224 498.803 93.136C498.803 92.24 498.483 91.536 497.843 91.024C497.203 90.512 496.211 90.16 494.867 89.968L490.451 89.344C488.019 88.992 486.195 88.24 484.979 87.088C483.763 85.936 483.155 84.4 483.155 82.48C483.155 81.008 483.555 79.728 484.355 78.64C485.155 77.52 486.275 76.656 487.715 76.048C489.155 75.408 490.835 75.088 492.755 75.088C494.515 75.088 496.211 75.344 497.843 75.856C499.475 76.368 501.043 77.168 502.547 78.256L500.099 81.424C498.755 80.528 497.443 79.872 496.163 79.456C494.915 79.04 493.651 78.832 492.371 78.832C490.899 78.832 489.715 79.152 488.819 79.792C487.923 80.4 487.475 81.2 487.475 82.192C487.475 83.088 487.779 83.792 488.387 84.304C489.027 84.784 490.067 85.12 491.507 85.312L495.923 85.936C498.355 86.288 500.195 87.04 501.443 88.192C502.691 89.312 503.315 90.832 503.315 92.752C503.315 94.224 502.867 95.552 501.971 96.736C501.075 97.888 499.859 98.8 498.323 99.472C496.787 100.144 495.043 100.48 493.091 100.48ZM519.399 100.432C517.031 100.432 515.223 99.888 513.975 98.8C512.727 97.68 512.103 96.064 512.103 93.952V79.6H506.919V75.568H512.103V69.328L516.855 68.176V75.568H524.055V79.6H516.855V92.848C516.855 94.096 517.127 94.992 517.671 95.536C518.247 96.048 519.175 96.304 520.455 96.304C521.127 96.304 521.719 96.256 522.231 96.16C522.775 96.064 523.351 95.92 523.959 95.728V99.76C523.319 99.984 522.567 100.144 521.703 100.24C520.871 100.368 520.103 100.432 519.399 100.432ZM533.159 100.336C532.327 100.336 531.607 100.048 530.999 99.472C530.423 98.864 530.135 98.144 530.135 97.312C530.135 96.48 530.423 95.776 530.999 95.2C531.607 94.592 532.327 94.288 533.159 94.288C533.991 94.288 534.695 94.592 535.271 95.2C535.879 95.776 536.183 96.48 536.183 97.312C536.183 98.144 535.879 98.864 535.271 99.472C534.695 100.048 533.991 100.336 533.159 100.336Z" fill="black"/>
</svg>
