<svg width="522" height="85" viewBox="0 0 522 85" fill="none" xmlns="http://www.w3.org/2000/svg">
<path d="M1.556 27V1.8H6.632L14.516 17.928L22.4 1.8H27.44V27H23.876V6.408L14.48 25.2L5.084 6.408V27H1.556ZM39.3762 27.324C38.0562 27.324 36.8922 27.096 35.8842 26.64C34.8762 26.16 34.0842 25.5 33.5082 24.66C32.9322 23.82 32.6442 22.848 32.6442 21.744C32.6442 20.016 33.3042 18.66 34.6242 17.676C35.9442 16.668 37.7562 16.164 40.0602 16.164C41.8602 16.164 43.5282 16.512 45.0642 17.208V15.264C45.0642 13.944 44.6802 12.96 43.9122 12.312C43.1683 11.664 42.0642 11.34 40.6002 11.34C39.7602 11.34 38.8842 11.472 37.9722 11.736C37.0602 11.976 36.0402 12.36 34.9122 12.888L33.5802 10.188C34.9722 9.54 36.2682 9.072 37.4682 8.784C38.6682 8.472 39.8802 8.316 41.1042 8.316C43.4802 8.316 45.3162 8.88 46.6123 10.008C47.9322 11.136 48.5922 12.744 48.5922 14.832V27H45.0642V25.416C44.2482 26.064 43.3722 26.544 42.4362 26.856C41.5002 27.168 40.4802 27.324 39.3762 27.324ZM36.1002 21.672C36.1002 22.56 36.4722 23.28 37.2162 23.832C37.9842 24.36 38.9802 24.624 40.2042 24.624C41.1642 24.624 42.0402 24.492 42.8322 24.228C43.6482 23.94 44.3923 23.496 45.0642 22.896V19.8C44.3682 19.392 43.6362 19.104 42.8682 18.936C42.1242 18.744 41.2842 18.648 40.3482 18.648C39.0282 18.648 37.9842 18.924 37.2162 19.476C36.4722 20.004 36.1002 20.736 36.1002 21.672ZM54.5404 27V8.676H58.1404V10.548C59.5564 9.06 61.3924 8.316 63.6484 8.316C65.0644 8.316 66.3004 8.616 67.3564 9.216C68.4364 9.816 69.2764 10.656 69.8764 11.736C70.5004 12.816 70.8124 14.064 70.8124 15.48V27H67.2124V16.092C67.2124 14.652 66.8044 13.524 65.9884 12.708C65.1964 11.868 64.0804 11.448 62.6404 11.448C61.6804 11.448 60.8164 11.652 60.0484 12.06C59.2804 12.468 58.6444 13.056 58.1404 13.824V27H54.5404ZM76.7662 27V8.676H80.3662V27H76.7662ZM78.5662 5.724C77.9662 5.724 77.4502 5.508 77.0182 5.076C76.5862 4.62 76.3702 4.092 76.3702 3.492C76.3702 2.868 76.5862 2.352 77.0182 1.944C77.4502 1.512 77.9662 1.296 78.5662 1.296C79.1902 1.296 79.7182 1.512 80.1502 1.944C80.5822 2.352 80.7982 2.868 80.7982 3.492C80.7982 4.092 80.5822 4.62 80.1502 5.076C79.7182 5.508 79.1902 5.724 78.5662 5.724ZM89.142 27V11.7H84.894V8.676H89.142V5.904C89.142 3.984 89.67 2.52 90.726 1.512C91.806 0.503999 93.342 -2.14577e-06 95.334 -2.14577e-06C95.838 -2.14577e-06 96.306 0.0359981 96.738 0.107999C97.194 0.155998 97.602 0.239998 97.962 0.36V3.456C97.53 3.336 97.146 3.252 96.81 3.204C96.474 3.132 96.102 3.096 95.694 3.096C94.686 3.096 93.93 3.336 93.426 3.816C92.946 4.272 92.706 5.004 92.706 6.012V8.676H97.962V11.7H92.706V27H89.142ZM110.455 27.324C108.655 27.324 107.023 26.904 105.559 26.064C104.119 25.224 102.967 24.084 102.103 22.644C101.263 21.204 100.843 19.596 100.843 17.82C100.843 16.068 101.251 14.484 102.067 13.068C102.883 11.628 103.987 10.488 105.379 9.648C106.771 8.784 108.319 8.352 110.023 8.352C111.727 8.352 113.239 8.784 114.559 9.648C115.879 10.488 116.923 11.64 117.691 13.104C118.483 14.544 118.879 16.176 118.879 18V19.008H104.443C104.635 20.016 105.007 20.916 105.559 21.708C106.135 22.5 106.855 23.124 107.719 23.58C108.607 24.036 109.567 24.264 110.599 24.264C111.487 24.264 112.339 24.132 113.155 23.868C113.995 23.58 114.691 23.172 115.243 22.644L117.547 24.912C116.467 25.728 115.351 26.34 114.199 26.748C113.071 27.132 111.823 27.324 110.455 27.324ZM104.479 16.308H115.315C115.171 15.348 114.835 14.508 114.307 13.788C113.803 13.044 113.167 12.468 112.399 12.06C111.655 11.628 110.839 11.412 109.951 11.412C109.039 11.412 108.199 11.616 107.431 12.024C106.663 12.432 106.015 13.008 105.487 13.752C104.983 14.472 104.647 15.324 104.479 16.308ZM130.583 27.36C128.999 27.36 127.511 27.132 126.119 26.676C124.751 26.196 123.563 25.524 122.555 24.66L124.535 22.284C125.471 23.028 126.431 23.604 127.415 24.012C128.423 24.396 129.443 24.588 130.475 24.588C131.771 24.588 132.827 24.336 133.643 23.832C134.459 23.328 134.867 22.668 134.867 21.852C134.867 21.18 134.627 20.652 134.147 20.268C133.667 19.884 132.923 19.62 131.915 19.476L128.603 19.008C126.779 18.744 125.411 18.18 124.499 17.316C123.587 16.452 123.131 15.3 123.131 13.86C123.131 12.756 123.431 11.796 124.031 10.98C124.631 10.14 125.471 9.492 126.551 9.036C127.631 8.556 128.891 8.316 130.331 8.316C131.651 8.316 132.923 8.508 134.147 8.892C135.371 9.276 136.547 9.876 137.675 10.692L135.839 13.068C134.831 12.396 133.847 11.904 132.887 11.592C131.951 11.28 131.003 11.124 130.043 11.124C128.939 11.124 128.051 11.364 127.379 11.844C126.707 12.3 126.371 12.9 126.371 13.644C126.371 14.316 126.599 14.844 127.055 15.228C127.535 15.588 128.315 15.84 129.395 15.984L132.707 16.452C134.531 16.716 135.911 17.28 136.847 18.144C137.783 18.984 138.251 20.124 138.251 21.564C138.251 22.668 137.915 23.664 137.243 24.552C136.571 25.416 135.659 26.1 134.507 26.604C133.355 27.108 132.047 27.36 130.583 27.36ZM150.314 27.324C148.538 27.324 147.182 26.916 146.246 26.1C145.31 25.26 144.842 24.048 144.842 22.464V11.7H140.954V8.676H144.842V3.996L148.406 3.132V8.676H153.806V11.7H148.406V21.636C148.406 22.572 148.61 23.244 149.018 23.652C149.45 24.036 150.146 24.228 151.106 24.228C151.61 24.228 152.054 24.192 152.438 24.12C152.846 24.048 153.278 23.94 153.734 23.796V26.82C153.254 26.988 152.69 27.108 152.042 27.18C151.418 27.276 150.842 27.324 150.314 27.324ZM167.582 27V8.676H171.182V27H167.582ZM169.382 5.724C168.782 5.724 168.266 5.508 167.834 5.076C167.402 4.62 167.186 4.092 167.186 3.492C167.186 2.868 167.402 2.352 167.834 1.944C168.266 1.512 168.782 1.296 169.382 1.296C170.006 1.296 170.534 1.512 170.966 1.944C171.398 2.352 171.614 2.868 171.614 3.492C171.614 4.092 171.398 4.62 170.966 5.076C170.534 5.508 170.006 5.724 169.382 5.724ZM183.522 27.36C181.938 27.36 180.45 27.132 179.058 26.676C177.69 26.196 176.502 25.524 175.494 24.66L177.474 22.284C178.41 23.028 179.37 23.604 180.354 24.012C181.362 24.396 182.382 24.588 183.414 24.588C184.71 24.588 185.766 24.336 186.582 23.832C187.398 23.328 187.806 22.668 187.806 21.852C187.806 21.18 187.566 20.652 187.086 20.268C186.606 19.884 185.862 19.62 184.854 19.476L181.542 19.008C179.718 18.744 178.35 18.18 177.438 17.316C176.526 16.452 176.07 15.3 176.07 13.86C176.07 12.756 176.37 11.796 176.97 10.98C177.57 10.14 178.41 9.492 179.49 9.036C180.57 8.556 181.83 8.316 183.27 8.316C184.59 8.316 185.862 8.508 187.086 8.892C188.31 9.276 189.486 9.876 190.614 10.692L188.778 13.068C187.77 12.396 186.786 11.904 185.826 11.592C184.89 11.28 183.942 11.124 182.982 11.124C181.878 11.124 180.99 11.364 180.318 11.844C179.646 12.3 179.31 12.9 179.31 13.644C179.31 14.316 179.538 14.844 179.994 15.228C180.474 15.588 181.254 15.84 182.334 15.984L185.646 16.452C187.47 16.716 188.85 17.28 189.786 18.144C190.722 18.984 191.19 20.124 191.19 21.564C191.19 22.668 190.854 23.664 190.182 24.552C189.51 25.416 188.598 26.1 187.446 26.604C186.294 27.108 184.986 27.36 183.522 27.36ZM210.875 27.324C209.555 27.324 208.391 27.096 207.383 26.64C206.375 26.16 205.583 25.5 205.007 24.66C204.431 23.82 204.143 22.848 204.143 21.744C204.143 20.016 204.803 18.66 206.123 17.676C207.443 16.668 209.255 16.164 211.559 16.164C213.359 16.164 215.027 16.512 216.563 17.208V15.264C216.563 13.944 216.179 12.96 215.411 12.312C214.667 11.664 213.563 11.34 212.099 11.34C211.259 11.34 210.383 11.472 209.471 11.736C208.559 11.976 207.539 12.36 206.411 12.888L205.079 10.188C206.471 9.54 207.767 9.072 208.967 8.784C210.167 8.472 211.379 8.316 212.603 8.316C214.979 8.316 216.815 8.88 218.111 10.008C219.431 11.136 220.091 12.744 220.091 14.832V27H216.563V25.416C215.747 26.064 214.871 26.544 213.935 26.856C212.999 27.168 211.979 27.324 210.875 27.324ZM207.599 21.672C207.599 22.56 207.971 23.28 208.715 23.832C209.483 24.36 210.479 24.624 211.703 24.624C212.663 24.624 213.539 24.492 214.331 24.228C215.147 23.94 215.891 23.496 216.563 22.896V19.8C215.867 19.392 215.135 19.104 214.367 18.936C213.623 18.744 212.783 18.648 211.847 18.648C210.527 18.648 209.483 18.924 208.715 19.476C207.971 20.004 207.599 20.736 207.599 21.672ZM235.363 27V8.676H238.963V10.548C240.379 9.06 242.215 8.316 244.471 8.316C245.887 8.316 247.123 8.616 248.179 9.216C249.259 9.816 250.099 10.656 250.699 11.736C251.323 12.816 251.635 14.064 251.635 15.48V27H248.035V16.092C248.035 14.652 247.627 13.524 246.811 12.708C246.019 11.868 244.903 11.448 243.463 11.448C242.503 11.448 241.639 11.652 240.871 12.06C240.103 12.468 239.467 13.056 238.963 13.824V27H235.363ZM266.373 27.324C264.573 27.324 262.941 26.904 261.477 26.064C260.037 25.224 258.885 24.084 258.021 22.644C257.181 21.204 256.761 19.596 256.761 17.82C256.761 16.068 257.169 14.484 257.985 13.068C258.801 11.628 259.905 10.488 261.297 9.648C262.689 8.784 264.237 8.352 265.941 8.352C267.645 8.352 269.157 8.784 270.477 9.648C271.797 10.488 272.841 11.64 273.609 13.104C274.401 14.544 274.797 16.176 274.797 18V19.008H260.361C260.553 20.016 260.925 20.916 261.477 21.708C262.053 22.5 262.773 23.124 263.637 23.58C264.525 24.036 265.485 24.264 266.517 24.264C267.405 24.264 268.257 24.132 269.073 23.868C269.913 23.58 270.609 23.172 271.161 22.644L273.465 24.912C272.385 25.728 271.269 26.34 270.117 26.748C268.989 27.132 267.741 27.324 266.373 27.324ZM260.397 16.308H271.233C271.089 15.348 270.753 14.508 270.225 13.788C269.721 13.044 269.085 12.468 268.317 12.06C267.573 11.628 266.757 11.412 265.869 11.412C264.957 11.412 264.117 11.616 263.349 12.024C262.581 12.432 261.933 13.008 261.405 13.752C260.901 14.472 260.565 15.324 260.397 16.308ZM283.094 27L277.982 8.676H281.474L285.038 22.14L289.214 8.676H292.31L296.486 22.14L300.05 8.676H303.434L298.286 27H294.83L290.726 13.572L286.586 27H283.094ZM307.806 27V1.8L311.406 1.116V10.404C312.942 9.06 314.802 8.388 316.986 8.388C318.714 8.388 320.274 8.808 321.666 9.648C323.082 10.488 324.198 11.616 325.014 13.032C325.83 14.448 326.238 16.044 326.238 17.82C326.238 19.596 325.818 21.204 324.978 22.644C324.162 24.06 323.046 25.188 321.63 26.028C320.238 26.868 318.666 27.288 316.914 27.288C315.906 27.288 314.922 27.132 313.962 26.82C313.026 26.484 312.162 26.016 311.37 25.416V27H307.806ZM316.518 24.156C317.694 24.156 318.738 23.88 319.65 23.328C320.586 22.776 321.33 22.032 321.882 21.096C322.434 20.136 322.71 19.056 322.71 17.856C322.71 16.656 322.434 15.576 321.882 14.616C321.33 13.656 320.586 12.9 319.65 12.348C318.738 11.796 317.694 11.52 316.518 11.52C315.486 11.52 314.526 11.712 313.638 12.096C312.75 12.48 312.006 13.02 311.406 13.716V21.996C312.006 22.668 312.75 23.196 313.638 23.58C314.55 23.964 315.51 24.156 316.518 24.156ZM340.185 27.36C338.409 27.36 336.789 26.94 335.325 26.1C333.885 25.26 332.745 24.12 331.905 22.68C331.065 21.24 330.645 19.632 330.645 17.856C330.645 16.08 331.065 14.472 331.905 13.032C332.745 11.592 333.885 10.452 335.325 9.612C336.789 8.748 338.409 8.316 340.185 8.316C341.985 8.316 343.605 8.748 345.045 9.612C346.485 10.452 347.625 11.592 348.465 13.032C349.305 14.472 349.725 16.08 349.725 17.856C349.725 19.632 349.305 21.24 348.465 22.68C347.625 24.12 346.485 25.26 345.045 26.1C343.605 26.94 341.985 27.36 340.185 27.36ZM340.185 24.192C341.313 24.192 342.333 23.916 343.245 23.364C344.157 22.788 344.877 22.02 345.405 21.06C345.933 20.1 346.197 19.02 346.197 17.82C346.197 16.644 345.921 15.588 345.369 14.652C344.841 13.692 344.121 12.924 343.209 12.348C342.321 11.772 341.313 11.484 340.185 11.484C339.057 11.484 338.037 11.772 337.125 12.348C336.237 12.924 335.517 13.692 334.965 14.652C334.437 15.588 334.173 16.644 334.173 17.82C334.173 19.02 334.437 20.1 334.965 21.06C335.493 22.02 336.213 22.788 337.125 23.364C338.037 23.916 339.057 24.192 340.185 24.192ZM354.929 27V8.676H358.529V11.016C359.105 10.152 359.813 9.48 360.653 9C361.517 8.496 362.489 8.244 363.569 8.244C364.313 8.268 364.925 8.376 365.405 8.568V11.808C365.069 11.664 364.721 11.568 364.361 11.52C364.001 11.448 363.641 11.412 363.281 11.412C362.225 11.412 361.289 11.7 360.473 12.276C359.657 12.828 359.009 13.644 358.529 14.724V27H354.929ZM370.089 27V8.676H373.689V10.548C375.105 9.06 376.941 8.316 379.197 8.316C380.613 8.316 381.849 8.616 382.905 9.216C383.985 9.816 384.825 10.656 385.425 11.736C386.049 12.816 386.361 14.064 386.361 15.48V27H382.761V16.092C382.761 14.652 382.353 13.524 381.537 12.708C380.745 11.868 379.629 11.448 378.189 11.448C377.229 11.448 376.365 11.652 375.597 12.06C374.829 12.468 374.193 13.056 373.689 13.824V27H370.089ZM409.486 27.324C407.71 27.324 406.354 26.916 405.418 26.1C404.482 25.26 404.014 24.048 404.014 22.464V11.7H400.126V8.676H404.014V3.996L407.578 3.132V8.676H412.978V11.7H407.578V21.636C407.578 22.572 407.782 23.244 408.19 23.652C408.622 24.036 409.318 24.228 410.278 24.228C410.782 24.228 411.226 24.192 411.61 24.12C412.018 24.048 412.45 23.94 412.906 23.796V26.82C412.426 26.988 411.862 27.108 411.214 27.18C410.59 27.276 410.014 27.324 409.486 27.324ZM417.43 27V1.8L421.03 1.008V10.548C422.446 9.06 424.282 8.316 426.538 8.316C427.954 8.316 429.19 8.616 430.246 9.216C431.326 9.816 432.166 10.656 432.766 11.736C433.39 12.816 433.702 14.064 433.702 15.48V27H430.102V16.092C430.102 14.652 429.694 13.524 428.878 12.708C428.062 11.868 426.946 11.448 425.53 11.448C424.57 11.448 423.706 11.652 422.938 12.06C422.17 12.468 421.534 13.056 421.03 13.824V27H417.43ZM448.44 27.324C446.64 27.324 445.008 26.904 443.544 26.064C442.104 25.224 440.952 24.084 440.088 22.644C439.248 21.204 438.828 19.596 438.828 17.82C438.828 16.068 439.236 14.484 440.052 13.068C440.868 11.628 441.972 10.488 443.364 9.648C444.756 8.784 446.304 8.352 448.008 8.352C449.712 8.352 451.224 8.784 452.544 9.648C453.864 10.488 454.908 11.64 455.676 13.104C456.468 14.544 456.864 16.176 456.864 18V19.008H442.428C442.62 20.016 442.992 20.916 443.544 21.708C444.12 22.5 444.84 23.124 445.704 23.58C446.592 24.036 447.552 24.264 448.584 24.264C449.472 24.264 450.324 24.132 451.14 23.868C451.98 23.58 452.676 23.172 453.228 22.644L455.532 24.912C454.452 25.728 453.336 26.34 452.184 26.748C451.056 27.132 449.808 27.324 448.44 27.324ZM442.464 16.308H453.3C453.156 15.348 452.82 14.508 452.292 13.788C451.788 13.044 451.152 12.468 450.384 12.06C449.64 11.628 448.824 11.412 447.936 11.412C447.024 11.412 446.184 11.616 445.416 12.024C444.648 12.432 444 13.008 443.472 13.752C442.968 14.472 442.632 15.324 442.464 16.308ZM462.093 27V8.676H465.693V10.44C467.061 9.024 468.777 8.316 470.841 8.316C472.089 8.316 473.193 8.592 474.153 9.144C475.137 9.696 475.917 10.44 476.493 11.376C477.261 10.368 478.161 9.612 479.193 9.108C480.225 8.58 481.389 8.316 482.685 8.316C484.053 8.316 485.241 8.616 486.249 9.216C487.281 9.816 488.085 10.656 488.661 11.736C489.261 12.816 489.561 14.064 489.561 15.48V27H485.961V16.092C485.961 14.652 485.577 13.524 484.809 12.708C484.065 11.868 483.045 11.448 481.749 11.448C480.861 11.448 480.057 11.652 479.337 12.06C478.617 12.468 477.993 13.092 477.465 13.932C477.513 14.172 477.549 14.424 477.573 14.688C477.597 14.952 477.609 15.216 477.609 15.48V27H474.045V16.092C474.045 14.652 473.661 13.524 472.893 12.708C472.149 11.868 471.129 11.448 469.833 11.448C468.969 11.448 468.189 11.64 467.493 12.024C466.797 12.384 466.197 12.936 465.693 13.68V27H462.093ZM504.282 27.324C502.482 27.324 500.85 26.904 499.386 26.064C497.946 25.224 496.794 24.084 495.93 22.644C495.09 21.204 494.67 19.596 494.67 17.82C494.67 16.068 495.078 14.484 495.894 13.068C496.71 11.628 497.814 10.488 499.206 9.648C500.598 8.784 502.146 8.352 503.85 8.352C505.554 8.352 507.066 8.784 508.386 9.648C509.706 10.488 510.75 11.64 511.518 13.104C512.31 14.544 512.706 16.176 512.706 18V19.008H498.27C498.462 20.016 498.834 20.916 499.386 21.708C499.962 22.5 500.682 23.124 501.546 23.58C502.434 24.036 503.394 24.264 504.426 24.264C505.314 24.264 506.166 24.132 506.982 23.868C507.822 23.58 508.518 23.172 509.07 22.644L511.374 24.912C510.294 25.728 509.178 26.34 508.026 26.748C506.898 27.132 505.65 27.324 504.282 27.324ZM498.306 16.308H509.142C508.998 15.348 508.662 14.508 508.134 13.788C507.63 13.044 506.994 12.468 506.226 12.06C505.482 11.628 504.666 11.412 503.778 11.412C502.866 11.412 502.026 11.616 501.258 12.024C500.49 12.432 499.842 13.008 499.314 13.752C498.81 14.472 498.474 15.324 498.306 16.308ZM519.221 27.252C518.597 27.252 518.057 27.036 517.601 26.604C517.169 26.148 516.953 25.608 516.953 24.984C516.953 24.36 517.169 23.832 517.601 23.4C518.057 22.944 518.597 22.716 519.221 22.716C519.845 22.716 520.373 22.944 520.805 23.4C521.261 23.832 521.489 24.36 521.489 24.984C521.489 25.608 521.261 26.148 520.805 26.604C520.373 27.036 519.845 27.252 519.221 27.252ZM13.688 77.396C11.816 77.396 10.076 77.072 8.468 76.424C6.884 75.752 5.48 74.828 4.256 73.652C3.056 72.452 2.12 71.072 1.448 69.512C0.8 67.928 0.476 66.224 0.476 64.4C0.476 62.576 0.8 60.884 1.448 59.324C2.12 57.74 3.056 56.36 4.256 55.184C5.48 53.984 6.896 53.06 8.504 52.412C10.112 51.74 11.84 51.404 13.688 51.404C15.008 51.404 16.292 51.584 17.54 51.944C18.812 52.28 19.976 52.772 21.032 53.42C22.112 54.068 23.048 54.848 23.84 55.76L21.32 58.352C20.384 57.224 19.244 56.372 17.9 55.796C16.556 55.196 15.152 54.896 13.688 54.896C12.344 54.896 11.096 55.136 9.944 55.616C8.816 56.096 7.832 56.768 6.992 57.632C6.152 58.472 5.492 59.468 5.012 60.62C4.556 61.772 4.328 63.032 4.328 64.4C4.328 65.744 4.556 66.992 5.012 68.144C5.492 69.296 6.164 70.304 7.028 71.168C7.892 72.032 8.9 72.704 10.052 73.184C11.204 73.664 12.452 73.904 13.796 73.904C15.26 73.904 16.64 73.616 17.936 73.04C19.256 72.44 20.372 71.6 21.284 70.52L23.768 73.04C22.928 73.928 21.968 74.708 20.888 75.38C19.832 76.028 18.68 76.532 17.432 76.892C16.208 77.228 14.96 77.396 13.688 77.396ZM28.8342 77V51.8L32.4342 51.116V77H28.8342ZM47.258 77.324C45.458 77.324 43.826 76.904 42.362 76.064C40.922 75.224 39.77 74.084 38.906 72.644C38.066 71.204 37.646 69.596 37.646 67.82C37.646 66.068 38.054 64.484 38.87 63.068C39.686 61.628 40.79 60.488 42.182 59.648C43.574 58.784 45.122 58.352 46.826 58.352C48.53 58.352 50.042 58.784 51.362 59.648C52.682 60.488 53.726 61.64 54.494 63.104C55.286 64.544 55.682 66.176 55.682 68V69.008H41.246C41.438 70.016 41.81 70.916 42.362 71.708C42.938 72.5 43.658 73.124 44.522 73.58C45.41 74.036 46.37 74.264 47.402 74.264C48.29 74.264 49.142 74.132 49.958 73.868C50.798 73.58 51.494 73.172 52.046 72.644L54.35 74.912C53.27 75.728 52.154 76.34 51.002 76.748C49.874 77.132 48.626 77.324 47.258 77.324ZM41.282 66.308H52.118C51.974 65.348 51.638 64.508 51.11 63.788C50.606 63.044 49.97 62.468 49.202 62.06C48.458 61.628 47.642 61.412 46.754 61.412C45.842 61.412 45.002 61.616 44.234 62.024C43.466 62.432 42.818 63.008 42.29 63.752C41.786 64.472 41.45 65.324 41.282 66.308ZM66.4606 77.324C65.1406 77.324 63.9766 77.096 62.9686 76.64C61.9606 76.16 61.1686 75.5 60.5926 74.66C60.0166 73.82 59.7286 72.848 59.7286 71.744C59.7286 70.016 60.3886 68.66 61.7086 67.676C63.0286 66.668 64.8406 66.164 67.1446 66.164C68.9446 66.164 70.6126 66.512 72.1486 67.208V65.264C72.1486 63.944 71.7646 62.96 70.9966 62.312C70.2526 61.664 69.1486 61.34 67.6846 61.34C66.8446 61.34 65.9686 61.472 65.0566 61.736C64.1446 61.976 63.1246 62.36 61.9966 62.888L60.6646 60.188C62.0566 59.54 63.3526 59.072 64.5526 58.784C65.7526 58.472 66.9646 58.316 68.1886 58.316C70.5646 58.316 72.4006 58.88 73.6966 60.008C75.0166 61.136 75.6766 62.744 75.6766 64.832V77H72.1486V75.416C71.3326 76.064 70.4566 76.544 69.5206 76.856C68.5846 77.168 67.5646 77.324 66.4606 77.324ZM63.1846 71.672C63.1846 72.56 63.5566 73.28 64.3006 73.832C65.0686 74.36 66.0646 74.624 67.2886 74.624C68.2486 74.624 69.1246 74.492 69.9166 74.228C70.7326 73.94 71.4766 73.496 72.1486 72.896V69.8C71.4526 69.392 70.7206 69.104 69.9526 68.936C69.2086 68.744 68.3686 68.648 67.4326 68.648C66.1126 68.648 65.0686 68.924 64.3006 69.476C63.5566 70.004 63.1846 70.736 63.1846 71.672ZM81.6248 77V58.676H85.2248V60.548C86.6408 59.06 88.4768 58.316 90.7328 58.316C92.1488 58.316 93.3848 58.616 94.4408 59.216C95.5208 59.816 96.3608 60.656 96.9608 61.736C97.5848 62.816 97.8968 64.064 97.8968 65.48V77H94.2968V66.092C94.2968 64.652 93.8888 63.524 93.0728 62.708C92.2808 61.868 91.1648 61.448 89.7248 61.448C88.7648 61.448 87.9008 61.652 87.1328 62.06C86.3648 62.468 85.7288 63.056 85.2248 63.824V77H81.6248ZM102.699 82.148L104.931 73.76H108.747L105.435 82.148H102.699ZM130.274 77.36C128.69 77.36 127.202 77.132 125.81 76.676C124.442 76.196 123.254 75.524 122.246 74.66L124.226 72.284C125.162 73.028 126.122 73.604 127.106 74.012C128.114 74.396 129.134 74.588 130.166 74.588C131.462 74.588 132.518 74.336 133.334 73.832C134.15 73.328 134.558 72.668 134.558 71.852C134.558 71.18 134.318 70.652 133.838 70.268C133.358 69.884 132.614 69.62 131.606 69.476L128.294 69.008C126.47 68.744 125.102 68.18 124.19 67.316C123.278 66.452 122.822 65.3 122.822 63.86C122.822 62.756 123.122 61.796 123.722 60.98C124.322 60.14 125.162 59.492 126.242 59.036C127.322 58.556 128.582 58.316 130.022 58.316C131.342 58.316 132.614 58.508 133.838 58.892C135.062 59.276 136.238 59.876 137.366 60.692L135.53 63.068C134.522 62.396 133.538 61.904 132.578 61.592C131.642 61.28 130.694 61.124 129.734 61.124C128.63 61.124 127.742 61.364 127.07 61.844C126.398 62.3 126.062 62.9 126.062 63.644C126.062 64.316 126.29 64.844 126.746 65.228C127.226 65.588 128.006 65.84 129.086 65.984L132.398 66.452C134.222 66.716 135.602 67.28 136.538 68.144C137.474 68.984 137.942 70.124 137.942 71.564C137.942 72.668 137.606 73.664 136.934 74.552C136.262 75.416 135.35 76.1 134.198 76.604C133.046 77.108 131.738 77.36 130.274 77.36ZM142.508 77V58.676H146.108V77H142.508ZM144.308 55.724C143.708 55.724 143.192 55.508 142.76 55.076C142.328 54.62 142.112 54.092 142.112 53.492C142.112 52.868 142.328 52.352 142.76 51.944C143.192 51.512 143.708 51.296 144.308 51.296C144.932 51.296 145.46 51.512 145.892 51.944C146.324 52.352 146.54 52.868 146.54 53.492C146.54 54.092 146.324 54.62 145.892 55.076C145.46 55.508 144.932 55.724 144.308 55.724ZM152.148 77V58.676H155.748V60.44C157.116 59.024 158.832 58.316 160.896 58.316C162.144 58.316 163.248 58.592 164.208 59.144C165.192 59.696 165.972 60.44 166.548 61.376C167.316 60.368 168.216 59.612 169.248 59.108C170.28 58.58 171.444 58.316 172.74 58.316C174.108 58.316 175.296 58.616 176.304 59.216C177.336 59.816 178.14 60.656 178.716 61.736C179.316 62.816 179.616 64.064 179.616 65.48V77H176.016V66.092C176.016 64.652 175.632 63.524 174.864 62.708C174.12 61.868 173.1 61.448 171.804 61.448C170.916 61.448 170.112 61.652 169.392 62.06C168.672 62.468 168.048 63.092 167.52 63.932C167.568 64.172 167.604 64.424 167.628 64.688C167.652 64.952 167.664 65.216 167.664 65.48V77H164.1V66.092C164.1 64.652 163.716 63.524 162.948 62.708C162.204 61.868 161.184 61.448 159.888 61.448C159.024 61.448 158.244 61.64 157.548 62.024C156.852 62.384 156.252 62.936 155.748 63.68V77H152.148ZM185.554 84.344V58.676H189.118V60.44C190.654 59.072 192.526 58.388 194.734 58.388C196.462 58.388 198.022 58.808 199.414 59.648C200.83 60.488 201.946 61.616 202.762 63.032C203.578 64.448 203.986 66.044 203.986 67.82C203.986 69.596 203.566 71.204 202.726 72.644C201.91 74.06 200.794 75.188 199.378 76.028C197.986 76.868 196.414 77.288 194.662 77.288C193.654 77.288 192.682 77.132 191.746 76.82C190.81 76.484 189.946 76.016 189.154 75.416V84.344H185.554ZM194.266 74.156C195.442 74.156 196.486 73.88 197.398 73.328C198.334 72.776 199.078 72.032 199.63 71.096C200.182 70.136 200.458 69.056 200.458 67.856C200.458 66.656 200.182 65.576 199.63 64.616C199.078 63.656 198.334 62.9 197.398 62.348C196.486 61.796 195.442 61.52 194.266 61.52C193.234 61.52 192.274 61.712 191.386 62.096C190.498 62.48 189.754 63.02 189.154 63.716V71.996C189.754 72.668 190.498 73.196 191.386 73.58C192.298 73.964 193.258 74.156 194.266 74.156ZM209.221 77V51.8L212.821 51.116V77H209.221ZM227.645 77.324C225.845 77.324 224.213 76.904 222.749 76.064C221.309 75.224 220.157 74.084 219.293 72.644C218.453 71.204 218.033 69.596 218.033 67.82C218.033 66.068 218.441 64.484 219.257 63.068C220.073 61.628 221.177 60.488 222.569 59.648C223.961 58.784 225.509 58.352 227.213 58.352C228.917 58.352 230.429 58.784 231.749 59.648C233.069 60.488 234.113 61.64 234.881 63.104C235.673 64.544 236.069 66.176 236.069 68V69.008H221.633C221.825 70.016 222.197 70.916 222.749 71.708C223.325 72.5 224.045 73.124 224.909 73.58C225.797 74.036 226.757 74.264 227.789 74.264C228.677 74.264 229.529 74.132 230.345 73.868C231.185 73.58 231.881 73.172 232.433 72.644L234.737 74.912C233.657 75.728 232.541 76.34 231.389 76.748C230.261 77.132 229.013 77.324 227.645 77.324ZM221.669 66.308H232.505C232.361 65.348 232.025 64.508 231.497 63.788C230.993 63.044 230.357 62.468 229.589 62.06C228.845 61.628 228.029 61.412 227.141 61.412C226.229 61.412 225.389 61.616 224.621 62.024C223.853 62.432 223.205 63.008 222.677 63.752C222.173 64.472 221.837 65.324 221.669 66.308ZM256.417 77.324C255.097 77.324 253.933 77.096 252.925 76.64C251.917 76.16 251.125 75.5 250.549 74.66C249.973 73.82 249.685 72.848 249.685 71.744C249.685 70.016 250.345 68.66 251.665 67.676C252.985 66.668 254.797 66.164 257.101 66.164C258.901 66.164 260.569 66.512 262.105 67.208V65.264C262.105 63.944 261.721 62.96 260.953 62.312C260.209 61.664 259.105 61.34 257.641 61.34C256.801 61.34 255.925 61.472 255.013 61.736C254.101 61.976 253.081 62.36 251.953 62.888L250.621 60.188C252.013 59.54 253.309 59.072 254.509 58.784C255.709 58.472 256.921 58.316 258.145 58.316C260.521 58.316 262.357 58.88 263.653 60.008C264.973 61.136 265.633 62.744 265.633 64.832V77H262.105V75.416C261.289 76.064 260.413 76.544 259.477 76.856C258.541 77.168 257.521 77.324 256.417 77.324ZM253.141 71.672C253.141 72.56 253.513 73.28 254.257 73.832C255.025 74.36 256.021 74.624 257.245 74.624C258.205 74.624 259.081 74.492 259.873 74.228C260.689 73.94 261.433 73.496 262.105 72.896V69.8C261.409 69.392 260.677 69.104 259.909 68.936C259.165 68.744 258.325 68.648 257.389 68.648C256.069 68.648 255.025 68.924 254.257 69.476C253.513 70.004 253.141 70.736 253.141 71.672ZM271.581 77V58.676H275.181V60.548C276.597 59.06 278.433 58.316 280.689 58.316C282.105 58.316 283.341 58.616 284.397 59.216C285.477 59.816 286.317 60.656 286.917 61.736C287.541 62.816 287.853 64.064 287.853 65.48V77H284.253V66.092C284.253 64.652 283.845 63.524 283.029 62.708C282.237 61.868 281.121 61.448 279.681 61.448C278.721 61.448 277.857 61.652 277.089 62.06C276.321 62.468 275.685 63.056 275.181 63.824V77H271.581ZM302.231 77.288C300.527 77.288 298.967 76.868 297.551 76.028C296.135 75.188 295.019 74.06 294.203 72.644C293.387 71.204 292.979 69.596 292.979 67.82C292.979 66.044 293.387 64.448 294.203 63.032C295.043 61.616 296.171 60.488 297.587 59.648C299.003 58.808 300.575 58.388 302.303 58.388C303.311 58.388 304.283 58.544 305.219 58.856C306.155 59.168 307.019 59.624 307.811 60.224V51.8L311.411 51.116V77H307.847V75.236C306.287 76.604 304.415 77.288 302.231 77.288ZM302.699 74.156C303.755 74.156 304.715 73.964 305.579 73.58C306.467 73.196 307.211 72.644 307.811 71.924V63.68C307.211 63.008 306.467 62.48 305.579 62.096C304.715 61.688 303.755 61.484 302.699 61.484C301.547 61.484 300.503 61.76 299.567 62.312C298.631 62.864 297.887 63.62 297.335 64.58C296.783 65.516 296.507 66.584 296.507 67.784C296.507 68.984 296.783 70.064 297.335 71.024C297.887 71.984 298.631 72.752 299.567 73.328C300.503 73.88 301.547 74.156 302.699 74.156ZM329.533 77V61.7H325.285V58.676H329.533V55.904C329.533 53.984 330.061 52.52 331.117 51.512C332.197 50.504 333.733 50 335.725 50C336.229 50 336.697 50.036 337.129 50.108C337.585 50.156 337.993 50.24 338.353 50.36V53.456C337.921 53.336 337.537 53.252 337.201 53.204C336.865 53.132 336.493 53.096 336.085 53.096C335.077 53.096 334.321 53.336 333.817 53.816C333.337 54.272 333.097 55.004 333.097 56.012V58.676H338.353V61.7H333.097V77H329.533ZM348.104 77.324C346.784 77.324 345.62 77.096 344.612 76.64C343.604 76.16 342.812 75.5 342.236 74.66C341.66 73.82 341.372 72.848 341.372 71.744C341.372 70.016 342.032 68.66 343.352 67.676C344.672 66.668 346.484 66.164 348.788 66.164C350.588 66.164 352.256 66.512 353.792 67.208V65.264C353.792 63.944 353.408 62.96 352.64 62.312C351.896 61.664 350.792 61.34 349.328 61.34C348.488 61.34 347.612 61.472 346.7 61.736C345.788 61.976 344.768 62.36 343.64 62.888L342.308 60.188C343.7 59.54 344.996 59.072 346.196 58.784C347.396 58.472 348.608 58.316 349.832 58.316C352.208 58.316 354.044 58.88 355.34 60.008C356.66 61.136 357.32 62.744 357.32 64.832V77H353.792V75.416C352.976 76.064 352.1 76.544 351.164 76.856C350.228 77.168 349.208 77.324 348.104 77.324ZM344.828 71.672C344.828 72.56 345.2 73.28 345.944 73.832C346.712 74.36 347.708 74.624 348.932 74.624C349.892 74.624 350.768 74.492 351.56 74.228C352.376 73.94 353.12 73.496 353.792 72.896V69.8C353.096 69.392 352.364 69.104 351.596 68.936C350.852 68.744 350.012 68.648 349.076 68.648C347.756 68.648 346.712 68.924 345.944 69.476C345.2 70.004 344.828 70.736 344.828 71.672ZM369.569 77.36C367.985 77.36 366.497 77.132 365.105 76.676C363.737 76.196 362.549 75.524 361.541 74.66L363.521 72.284C364.457 73.028 365.417 73.604 366.401 74.012C367.409 74.396 368.429 74.588 369.461 74.588C370.757 74.588 371.813 74.336 372.629 73.832C373.445 73.328 373.853 72.668 373.853 71.852C373.853 71.18 373.613 70.652 373.133 70.268C372.653 69.884 371.909 69.62 370.901 69.476L367.589 69.008C365.765 68.744 364.397 68.18 363.485 67.316C362.573 66.452 362.117 65.3 362.117 63.86C362.117 62.756 362.417 61.796 363.017 60.98C363.617 60.14 364.457 59.492 365.537 59.036C366.617 58.556 367.877 58.316 369.317 58.316C370.637 58.316 371.909 58.508 373.133 58.892C374.357 59.276 375.533 59.876 376.661 60.692L374.825 63.068C373.817 62.396 372.833 61.904 371.873 61.592C370.937 61.28 369.989 61.124 369.029 61.124C367.925 61.124 367.037 61.364 366.365 61.844C365.693 62.3 365.357 62.9 365.357 63.644C365.357 64.316 365.585 64.844 366.041 65.228C366.521 65.588 367.301 65.84 368.381 65.984L371.693 66.452C373.517 66.716 374.897 67.28 375.833 68.144C376.769 68.984 377.237 70.124 377.237 71.564C377.237 72.668 376.901 73.664 376.229 74.552C375.557 75.416 374.645 76.1 373.493 76.604C372.341 77.108 371.033 77.36 369.569 77.36ZM389.299 77.324C387.523 77.324 386.167 76.916 385.231 76.1C384.295 75.26 383.827 74.048 383.827 72.464V61.7H379.939V58.676H383.827V53.996L387.391 53.132V58.676H392.791V61.7H387.391V71.636C387.391 72.572 387.595 73.244 388.003 73.652C388.435 74.036 389.131 74.228 390.091 74.228C390.595 74.228 391.039 74.192 391.423 74.12C391.831 74.048 392.263 73.94 392.719 73.796V76.82C392.239 76.988 391.675 77.108 391.027 77.18C390.403 77.276 389.827 77.324 389.299 77.324ZM399.62 77.252C398.996 77.252 398.456 77.036 398 76.604C397.568 76.148 397.352 75.608 397.352 74.984C397.352 74.36 397.568 73.832 398 73.4C398.456 72.944 398.996 72.716 399.62 72.716C400.244 72.716 400.772 72.944 401.204 73.4C401.66 73.832 401.888 74.36 401.888 74.984C401.888 75.608 401.66 76.148 401.204 76.604C400.772 77.036 400.244 77.252 399.62 77.252Z" fill="black"/>
</svg>
