<svg width="270" height="50" viewBox="0 0 270 50" fill="none" xmlns="http://www.w3.org/2000/svg">
<rect x="0.999512" y="0.5" width="49" height="49" stroke="#565656"/>
<path d="M25.5024 18.8467C22.0964 18.8467 19.3491 21.594 19.3491 25C19.3491 28.406 22.0964 31.1533 25.5024 31.1533C28.9084 31.1533 31.6557 28.406 31.6557 25C31.6557 21.594 28.9084 18.8467 25.5024 18.8467ZM25.5024 29.0004C23.3014 29.0004 21.502 27.2064 21.502 25C21.502 22.7936 23.296 20.9996 25.5024 20.9996C27.7088 20.9996 29.5029 22.7936 29.5029 25C29.5029 27.2064 27.7035 29.0004 25.5024 29.0004ZM33.3427 18.595C33.3427 19.3929 32.7 20.0302 31.9074 20.0302C31.1095 20.0302 30.4722 19.3876 30.4722 18.595C30.4722 17.8024 31.1148 17.1598 31.9074 17.1598C32.7 17.1598 33.3427 17.8024 33.3427 18.595ZM37.4181 20.0517C37.327 18.1291 36.8879 16.4261 35.4794 15.023C34.0763 13.6199 32.3733 13.1807 30.4508 13.0843C28.4693 12.9719 22.5302 12.9719 20.5487 13.0843C18.6315 13.1754 16.9285 13.6145 15.5201 15.0176C14.1116 16.4207 13.6778 18.1237 13.5814 20.0463C13.469 22.0278 13.469 27.9669 13.5814 29.9483C13.6725 31.8709 14.1116 33.5739 15.5201 34.977C16.9285 36.3801 18.6262 36.8193 20.5487 36.9157C22.5302 37.0281 28.4693 37.0281 30.4508 36.9157C32.3733 36.8246 34.0763 36.3855 35.4794 34.977C36.8825 33.5739 37.3217 31.8709 37.4181 29.9483C37.5305 27.9669 37.5305 22.0331 37.4181 20.0517ZM34.8582 32.0744C34.4405 33.1241 33.6318 33.9327 32.5768 34.3558C30.997 34.9824 27.2483 34.8378 25.5024 34.8378C23.7566 34.8378 20.0025 34.977 18.428 34.3558C17.3784 33.9381 16.5697 33.1294 16.1466 32.0744C15.5201 30.4946 15.6646 26.7458 15.6646 25C15.6646 23.2542 15.5254 19.5001 16.1466 17.9256C16.5643 16.8759 17.373 16.0673 18.428 15.6442C20.0078 15.0176 23.7566 15.1622 25.5024 15.1622C27.2483 15.1622 31.0024 15.023 32.5768 15.6442C33.6265 16.0619 34.4352 16.8706 34.8582 17.9256C35.4848 19.5054 35.3402 23.2542 35.3402 25C35.3402 26.7458 35.4848 30.4999 34.8582 32.0744Z" fill="#565656"/>
<rect x="73.9995" y="0.5" width="49" height="49" stroke="#565656"/>
<path d="M104.084 26.5L104.751 22.1566H100.583V19.338C100.583 18.1497 101.165 16.9914 103.032 16.9914H104.926V13.2934C104.926 13.2934 103.207 13 101.563 13C98.1309 13 95.8874 15.0803 95.8874 18.8463V22.1566H92.0723V26.5H95.8874V37H100.583V26.5H104.084Z" fill="#565656"/>
<rect x="147" y="0.5" width="49" height="49" fill="#565656"/>
<rect x="147" y="0.5" width="49" height="49" stroke="#565656"/>
<path d="M183.237 18.9812C183.256 19.2437 183.256 19.5063 183.256 19.7687C183.256 27.775 177.162 37 166.025 37C162.593 37 159.406 36.0062 156.725 34.2813C157.212 34.3375 157.681 34.3563 158.187 34.3563C161.018 34.3563 163.625 33.4 165.706 31.7688C163.043 31.7125 160.812 29.9688 160.043 27.5687C160.418 27.625 160.793 27.6625 161.187 27.6625C161.731 27.6625 162.275 27.5874 162.781 27.4563C160.006 26.8937 157.925 24.4562 157.925 21.5125V21.4375C158.731 21.8875 159.668 22.1688 160.662 22.2062C159.031 21.1187 157.962 19.2625 157.962 17.1625C157.962 16.0375 158.262 15.0062 158.787 14.1062C161.768 17.7812 166.25 20.1812 171.275 20.4437C171.181 19.9937 171.125 19.525 171.125 19.0563C171.125 15.7187 173.825 13 177.181 13C178.925 13 180.5 13.7312 181.606 14.9125C182.975 14.65 184.287 14.1437 185.45 13.45C184.999 14.8563 184.043 16.0375 182.787 16.7875C184.006 16.6563 185.187 16.3187 186.275 15.85C185.45 17.05 184.418 18.1187 183.237 18.9812Z" fill="white"/>
<rect x="220" y="0.5" width="49.0007" height="49" stroke="#565656"/>
<path d="M237.872 37H232.896V20.9764H237.872V37ZM235.381 18.7907C233.79 18.7907 232.5 17.4728 232.5 15.8817C232.5 15.1174 232.803 14.3844 233.344 13.844C233.884 13.3036 234.617 13 235.381 13C236.145 13 236.878 13.3036 237.419 13.844C237.959 14.3844 238.263 15.1174 238.263 15.8817C238.263 17.4728 236.972 18.7907 235.381 18.7907ZM256.495 37H251.53V29.1998C251.53 27.3409 251.492 24.9569 248.943 24.9569C246.356 24.9569 245.959 26.9766 245.959 29.0659V37H240.989V20.9764H245.761V23.1622H245.831C246.495 21.9032 248.118 20.5746 250.538 20.5746C255.574 20.5746 256.5 23.8908 256.5 28.198V37H256.495Z" fill="#565656"/>
</svg>
