<svg width="261" height="174" viewBox="0 0 261 174" fill="none" xmlns="http://www.w3.org/2000/svg">
<path d="M2.13 23V2H6.36L12.93 15.44L19.5 2H23.7V23H20.73V5.84L12.9 21.5L5.07 5.84V23H2.13ZM33.6469 23.27C32.5469 23.27 31.5769 23.08 30.7369 22.7C29.8969 22.3 29.2369 21.75 28.7569 21.05C28.2769 20.35 28.0369 19.54 28.0369 18.62C28.0369 17.18 28.5869 16.05 29.6869 15.23C30.7869 14.39 32.2969 13.97 34.2169 13.97C35.7169 13.97 37.1069 14.26 38.3869 14.84V13.22C38.3869 12.12 38.0669 11.3 37.4269 10.76C36.8069 10.22 35.8869 9.95 34.6669 9.95C33.9669 9.95 33.2369 10.06 32.4769 10.28C31.7169 10.48 30.8669 10.8 29.9269 11.24L28.8169 8.99C29.9769 8.45 31.0569 8.06 32.0569 7.82C33.0569 7.56 34.0669 7.43 35.0869 7.43C37.0669 7.43 38.5969 7.9 39.6769 8.84C40.7769 9.78 41.3269 11.12 41.3269 12.86V23H38.3869V21.68C37.7069 22.22 36.9769 22.62 36.1969 22.88C35.4169 23.14 34.5669 23.27 33.6469 23.27ZM30.9169 18.56C30.9169 19.3 31.2269 19.9 31.8469 20.36C32.4869 20.8 33.3169 21.02 34.3369 21.02C35.1369 21.02 35.8669 20.91 36.5269 20.69C37.2069 20.45 37.8269 20.08 38.3869 19.58V17C37.8069 16.66 37.1969 16.42 36.5569 16.28C35.9369 16.12 35.2369 16.04 34.4569 16.04C33.3569 16.04 32.4869 16.27 31.8469 16.73C31.2269 17.17 30.9169 17.78 30.9169 18.56ZM46.2837 23V7.73H49.2837V9.29C50.4637 8.05 51.9937 7.43 53.8737 7.43C55.0537 7.43 56.0837 7.68 56.9637 8.18C57.8637 8.68 58.5637 9.38 59.0637 10.28C59.5837 11.18 59.8437 12.22 59.8437 13.4V23H56.8437V13.91C56.8437 12.71 56.5037 11.77 55.8237 11.09C55.1637 10.39 54.2337 10.04 53.0337 10.04C52.2337 10.04 51.5137 10.21 50.8737 10.55C50.2337 10.89 49.7037 11.38 49.2837 12.02V23H46.2837ZM64.8052 23V7.73H67.8052V23H64.8052ZM66.3052 5.27C65.8052 5.27 65.3752 5.09 65.0152 4.73C64.6552 4.35 64.4752 3.91 64.4752 3.41C64.4752 2.89 64.6552 2.46 65.0152 2.12C65.3752 1.76 65.8052 1.58 66.3052 1.58C66.8252 1.58 67.2652 1.76 67.6252 2.12C67.9852 2.46 68.1652 2.89 68.1652 3.41C68.1652 3.91 67.9852 4.35 67.6252 4.73C67.2652 5.09 66.8252 5.27 66.3052 5.27ZM75.1184 23V10.25H71.5784V7.73H75.1184V5.42C75.1184 3.82 75.5584 2.6 76.4384 1.76C77.3384 0.919999 78.6184 0.499998 80.2784 0.499998C80.6984 0.499998 81.0884 0.529998 81.4484 0.589999C81.8284 0.629998 82.1684 0.699999 82.4684 0.8V3.38C82.1084 3.28 81.7884 3.21 81.5084 3.17C81.2284 3.11 80.9184 3.08 80.5784 3.08C79.7384 3.08 79.1084 3.28 78.6884 3.68C78.2884 4.06 78.0884 4.67 78.0884 5.51V7.73H82.4684V10.25H78.0884V23H75.1184ZM92.8791 23.27C91.3791 23.27 90.0191 22.92 88.7991 22.22C87.5991 21.52 86.6391 20.57 85.9191 19.37C85.2191 18.17 84.8691 16.83 84.8691 15.35C84.8691 13.89 85.2091 12.57 85.8891 11.39C86.5691 10.19 87.4891 9.24 88.6491 8.54C89.8091 7.82 91.0991 7.46 92.5191 7.46C93.9391 7.46 95.1991 7.82 96.2991 8.54C97.3991 9.24 98.2691 10.2 98.9091 11.42C99.5691 12.62 99.8991 13.98 99.8991 15.5V16.34H87.8691C88.0291 17.18 88.3391 17.93 88.7991 18.59C89.2791 19.25 89.8791 19.77 90.5991 20.15C91.3391 20.53 92.1391 20.72 92.9991 20.72C93.7391 20.72 94.4491 20.61 95.1291 20.39C95.8291 20.15 96.4091 19.81 96.8691 19.37L98.7891 21.26C97.8891 21.94 96.9591 22.45 95.9991 22.79C95.0591 23.11 94.0191 23.27 92.8791 23.27ZM87.8991 14.09H96.9291C96.8091 13.29 96.5291 12.59 96.0891 11.99C95.6691 11.37 95.1391 10.89 94.4991 10.55C93.8791 10.19 93.1991 10.01 92.4591 10.01C91.6991 10.01 90.9991 10.18 90.3591 10.52C89.7191 10.86 89.1791 11.34 88.7391 11.96C88.3191 12.56 88.0391 13.27 87.8991 14.09ZM109.653 23.3C108.333 23.3 107.093 23.11 105.933 22.73C104.793 22.33 103.803 21.77 102.963 21.05L104.613 19.07C105.393 19.69 106.193 20.17 107.013 20.51C107.853 20.83 108.703 20.99 109.563 20.99C110.643 20.99 111.523 20.78 112.203 20.36C112.883 19.94 113.223 19.39 113.223 18.71C113.223 18.15 113.023 17.71 112.623 17.39C112.223 17.07 111.603 16.85 110.763 16.73L108.003 16.34C106.483 16.12 105.343 15.65 104.583 14.93C103.823 14.21 103.443 13.25 103.443 12.05C103.443 11.13 103.693 10.33 104.193 9.65C104.693 8.95 105.393 8.41 106.293 8.03C107.193 7.63 108.243 7.43 109.443 7.43C110.543 7.43 111.603 7.59 112.623 7.91C113.643 8.23 114.623 8.73 115.563 9.41L114.033 11.39C113.193 10.83 112.373 10.42 111.573 10.16C110.793 9.9 110.003 9.77 109.203 9.77C108.283 9.77 107.543 9.97 106.983 10.37C106.423 10.75 106.143 11.25 106.143 11.87C106.143 12.43 106.333 12.87 106.713 13.19C107.113 13.49 107.763 13.7 108.663 13.82L111.423 14.21C112.943 14.43 114.093 14.9 114.873 15.62C115.653 16.32 116.043 17.27 116.043 18.47C116.043 19.39 115.763 20.22 115.203 20.96C114.643 21.68 113.883 22.25 112.923 22.67C111.963 23.09 110.873 23.3 109.653 23.3ZM126.095 23.27C124.615 23.27 123.485 22.93 122.705 22.25C121.925 21.55 121.535 20.54 121.535 19.22V10.25H118.295V7.73H121.535V3.83L124.505 3.11V7.73H129.005V10.25H124.505V18.53C124.505 19.31 124.675 19.87 125.015 20.21C125.375 20.53 125.955 20.69 126.755 20.69C127.175 20.69 127.545 20.66 127.865 20.6C128.205 20.54 128.565 20.45 128.945 20.33V22.85C128.545 22.99 128.075 23.09 127.535 23.15C127.015 23.23 126.535 23.27 126.095 23.27ZM140.485 23V7.73H143.485V23H140.485ZM141.985 5.27C141.485 5.27 141.055 5.09 140.695 4.73C140.335 4.35 140.155 3.91 140.155 3.41C140.155 2.89 140.335 2.46 140.695 2.12C141.055 1.76 141.485 1.58 141.985 1.58C142.505 1.58 142.945 1.76 143.305 2.12C143.665 2.46 143.845 2.89 143.845 3.41C143.845 3.91 143.665 4.35 143.305 4.73C142.945 5.09 142.505 5.27 141.985 5.27ZM153.768 23.3C152.448 23.3 151.208 23.11 150.048 22.73C148.908 22.33 147.918 21.77 147.078 21.05L148.728 19.07C149.508 19.69 150.308 20.17 151.128 20.51C151.968 20.83 152.818 20.99 153.678 20.99C154.758 20.99 155.638 20.78 156.318 20.36C156.998 19.94 157.338 19.39 157.338 18.71C157.338 18.15 157.138 17.71 156.738 17.39C156.338 17.07 155.718 16.85 154.878 16.73L152.118 16.34C150.598 16.12 149.458 15.65 148.698 14.93C147.938 14.21 147.558 13.25 147.558 12.05C147.558 11.13 147.808 10.33 148.308 9.65C148.808 8.95 149.508 8.41 150.408 8.03C151.308 7.63 152.358 7.43 153.558 7.43C154.658 7.43 155.718 7.59 156.738 7.91C157.758 8.23 158.738 8.73 159.678 9.41L158.148 11.39C157.308 10.83 156.488 10.42 155.688 10.16C154.908 9.9 154.118 9.77 153.318 9.77C152.398 9.77 151.658 9.97 151.098 10.37C150.538 10.75 150.258 11.25 150.258 11.87C150.258 12.43 150.448 12.87 150.828 13.19C151.228 13.49 151.878 13.7 152.778 13.82L155.538 14.21C157.058 14.43 158.208 14.9 158.988 15.62C159.768 16.32 160.158 17.27 160.158 18.47C160.158 19.39 159.878 20.22 159.318 20.96C158.758 21.68 157.998 22.25 157.038 22.67C156.078 23.09 154.988 23.3 153.768 23.3ZM176.563 23.27C175.463 23.27 174.493 23.08 173.653 22.7C172.813 22.3 172.153 21.75 171.673 21.05C171.193 20.35 170.953 19.54 170.953 18.62C170.953 17.18 171.503 16.05 172.603 15.23C173.703 14.39 175.213 13.97 177.133 13.97C178.633 13.97 180.023 14.26 181.303 14.84V13.22C181.303 12.12 180.983 11.3 180.343 10.76C179.723 10.22 178.803 9.95 177.583 9.95C176.883 9.95 176.153 10.06 175.393 10.28C174.633 10.48 173.783 10.8 172.843 11.24L171.733 8.99C172.893 8.45 173.973 8.06 174.973 7.82C175.973 7.56 176.983 7.43 178.003 7.43C179.983 7.43 181.513 7.9 182.593 8.84C183.693 9.78 184.243 11.12 184.243 12.86V23H181.303V21.68C180.623 22.22 179.893 22.62 179.113 22.88C178.333 23.14 177.483 23.27 176.563 23.27ZM173.833 18.56C173.833 19.3 174.143 19.9 174.763 20.36C175.403 20.8 176.233 21.02 177.253 21.02C178.053 21.02 178.783 20.91 179.443 20.69C180.123 20.45 180.743 20.08 181.303 19.58V17C180.723 16.66 180.113 16.42 179.473 16.28C178.853 16.12 178.153 16.04 177.373 16.04C176.273 16.04 175.403 16.27 174.763 16.73C174.143 17.17 173.833 17.78 173.833 18.56ZM1.77 73V57.73H4.77V59.29C5.95 58.05 7.48 57.43 9.36 57.43C10.54 57.43 11.57 57.68 12.45 58.18C13.35 58.68 14.05 59.38 14.55 60.28C15.07 61.18 15.33 62.22 15.33 63.4V73H12.33V63.91C12.33 62.71 11.99 61.77 11.31 61.09C10.65 60.39 9.72 60.04 8.52 60.04C7.72 60.04 7 60.21 6.36 60.55C5.72 60.89 5.19 61.38 4.77 62.02V73H1.77ZM27.6115 73.27C26.1115 73.27 24.7515 72.92 23.5315 72.22C22.3315 71.52 21.3715 70.57 20.6515 69.37C19.9515 68.17 19.6015 66.83 19.6015 65.35C19.6015 63.89 19.9415 62.57 20.6215 61.39C21.3015 60.19 22.2215 59.24 23.3815 58.54C24.5415 57.82 25.8315 57.46 27.2515 57.46C28.6715 57.46 29.9315 57.82 31.0315 58.54C32.1315 59.24 33.0015 60.2 33.6415 61.42C34.3015 62.62 34.6315 63.98 34.6315 65.5V66.34H22.6015C22.7615 67.18 23.0715 67.93 23.5315 68.59C24.0115 69.25 24.6115 69.77 25.3315 70.15C26.0715 70.53 26.8715 70.72 27.7315 70.72C28.4715 70.72 29.1815 70.61 29.8615 70.39C30.5615 70.15 31.1415 69.81 31.6015 69.37L33.5215 71.26C32.6215 71.94 31.6915 72.45 30.7315 72.79C29.7915 73.11 28.7515 73.27 27.6115 73.27ZM22.6315 64.09H31.6615C31.5415 63.29 31.2615 62.59 30.8215 61.99C30.4015 61.37 29.8715 60.89 29.2315 60.55C28.6115 60.19 27.9315 60.01 27.1915 60.01C26.4315 60.01 25.7315 60.18 25.0915 60.52C24.4515 60.86 23.9115 61.34 23.4715 61.96C23.0515 62.56 22.7715 63.27 22.6315 64.09ZM41.5458 73L37.2858 57.73H40.1958L43.1658 68.95L46.6458 57.73H49.2258L52.7058 68.95L55.6758 57.73H58.4958L54.2058 73H51.3258L47.9058 61.81L44.4558 73H41.5458ZM62.1391 73V52L65.1391 51.43V59.17C66.4191 58.05 67.9691 57.49 69.7891 57.49C71.2291 57.49 72.5291 57.84 73.6891 58.54C74.8691 59.24 75.7991 60.18 76.4791 61.36C77.1591 62.54 77.4991 63.87 77.4991 65.35C77.4991 66.83 77.1491 68.17 76.4491 69.37C75.7691 70.55 74.8391 71.49 73.6591 72.19C72.4991 72.89 71.1891 73.24 69.7291 73.24C68.8891 73.24 68.0691 73.11 67.2691 72.85C66.4891 72.57 65.7691 72.18 65.1091 71.68V73H62.1391ZM69.3991 70.63C70.3791 70.63 71.2491 70.4 72.0091 69.94C72.7891 69.48 73.4091 68.86 73.8691 68.08C74.3291 67.28 74.5591 66.38 74.5591 65.38C74.5591 64.38 74.3291 63.48 73.8691 62.68C73.4091 61.88 72.7891 61.25 72.0091 60.79C71.2491 60.33 70.3791 60.1 69.3991 60.1C68.5391 60.1 67.7391 60.26 66.9991 60.58C66.2591 60.9 65.6391 61.35 65.1391 61.93V68.83C65.6391 69.39 66.2591 69.83 66.9991 70.15C67.7591 70.47 68.5591 70.63 69.3991 70.63ZM89.1218 73.3C87.6418 73.3 86.2918 72.95 85.0718 72.25C83.8718 71.55 82.9218 70.6 82.2218 69.4C81.5218 68.2 81.1718 66.86 81.1718 65.38C81.1718 63.9 81.5218 62.56 82.2218 61.36C82.9218 60.16 83.8718 59.21 85.0718 58.51C86.2918 57.79 87.6418 57.43 89.1218 57.43C90.6218 57.43 91.9718 57.79 93.1718 58.51C94.3718 59.21 95.3218 60.16 96.0218 61.36C96.7218 62.56 97.0718 63.9 97.0718 65.38C97.0718 66.86 96.7218 68.2 96.0218 69.4C95.3218 70.6 94.3718 71.55 93.1718 72.25C91.9718 72.95 90.6218 73.3 89.1218 73.3ZM89.1218 70.66C90.0618 70.66 90.9118 70.43 91.6718 69.97C92.4318 69.49 93.0318 68.85 93.4718 68.05C93.9118 67.25 94.1318 66.35 94.1318 65.35C94.1318 64.37 93.9018 63.49 93.4418 62.71C93.0018 61.91 92.4018 61.27 91.6418 60.79C90.9018 60.31 90.0618 60.07 89.1218 60.07C88.1818 60.07 87.3318 60.31 86.5718 60.79C85.8318 61.27 85.2318 61.91 84.7718 62.71C84.3318 63.49 84.1118 64.37 84.1118 65.35C84.1118 66.35 84.3318 67.25 84.7718 68.05C85.2118 68.85 85.8118 69.49 86.5718 69.97C87.3318 70.43 88.1818 70.66 89.1218 70.66ZM101.409 73V57.73H104.409V59.68C104.889 58.96 105.479 58.4 106.179 58C106.899 57.58 107.709 57.37 108.609 57.37C109.229 57.39 109.739 57.48 110.139 57.64V60.34C109.859 60.22 109.569 60.14 109.269 60.1C108.969 60.04 108.669 60.01 108.369 60.01C107.489 60.01 106.709 60.25 106.029 60.73C105.349 61.19 104.809 61.87 104.409 62.77V73H101.409ZM114.041 73V57.73H117.041V59.29C118.221 58.05 119.751 57.43 121.631 57.43C122.811 57.43 123.841 57.68 124.721 58.18C125.621 58.68 126.321 59.38 126.821 60.28C127.341 61.18 127.601 62.22 127.601 63.4V73H124.601V63.91C124.601 62.71 124.261 61.77 123.581 61.09C122.921 60.39 121.991 60.04 120.791 60.04C119.991 60.04 119.271 60.21 118.631 60.55C117.991 60.89 117.461 61.38 117.041 62.02V73H114.041ZM146.873 73.27C145.393 73.27 144.263 72.93 143.483 72.25C142.703 71.55 142.312 70.54 142.312 69.22V60.25H139.073V57.73H142.312V53.83L145.283 53.11V57.73H149.783V60.25H145.283V68.53C145.283 69.31 145.453 69.87 145.793 70.21C146.153 70.53 146.733 70.69 147.533 70.69C147.953 70.69 148.323 70.66 148.643 70.6C148.983 70.54 149.343 70.45 149.723 70.33V72.85C149.323 72.99 148.853 73.09 148.313 73.15C147.793 73.23 147.313 73.27 146.873 73.27ZM153.493 73V52L156.493 51.34V59.29C157.673 58.05 159.203 57.43 161.083 57.43C162.263 57.43 163.293 57.68 164.173 58.18C165.073 58.68 165.773 59.38 166.273 60.28C166.793 61.18 167.053 62.22 167.053 63.4V73H164.053V63.91C164.053 62.71 163.713 61.77 163.033 61.09C162.353 60.39 161.423 60.04 160.243 60.04C159.443 60.04 158.723 60.21 158.083 60.55C157.443 60.89 156.913 61.38 156.493 62.02V73H153.493ZM179.334 73.27C177.834 73.27 176.474 72.92 175.254 72.22C174.054 71.52 173.094 70.57 172.374 69.37C171.674 68.17 171.324 66.83 171.324 65.35C171.324 63.89 171.664 62.57 172.344 61.39C173.024 60.19 173.944 59.24 175.104 58.54C176.264 57.82 177.554 57.46 178.974 57.46C180.394 57.46 181.654 57.82 182.754 58.54C183.854 59.24 184.724 60.2 185.364 61.42C186.024 62.62 186.354 63.98 186.354 65.5V66.34H174.324C174.484 67.18 174.794 67.93 175.254 68.59C175.734 69.25 176.334 69.77 177.054 70.15C177.794 70.53 178.594 70.72 179.454 70.72C180.194 70.72 180.904 70.61 181.584 70.39C182.284 70.15 182.864 69.81 183.324 69.37L185.244 71.26C184.344 71.94 183.414 72.45 182.454 72.79C181.514 73.11 180.474 73.27 179.334 73.27ZM174.354 64.09H183.384C183.264 63.29 182.984 62.59 182.544 61.99C182.124 61.37 181.594 60.89 180.954 60.55C180.334 60.19 179.654 60.01 178.914 60.01C178.154 60.01 177.454 60.18 176.814 60.52C176.174 60.86 175.634 61.34 175.194 61.96C174.774 62.56 174.494 63.27 174.354 64.09ZM190.711 73V57.73H193.711V59.2C194.851 58.02 196.281 57.43 198.001 57.43C199.041 57.43 199.961 57.66 200.761 58.12C201.581 58.58 202.231 59.2 202.711 59.98C203.351 59.14 204.101 58.51 204.961 58.09C205.821 57.65 206.791 57.43 207.871 57.43C209.011 57.43 210.001 57.68 210.841 58.18C211.701 58.68 212.371 59.38 212.851 60.28C213.351 61.18 213.601 62.22 213.601 63.4V73H210.601V63.91C210.601 62.71 210.281 61.77 209.641 61.09C209.021 60.39 208.171 60.04 207.091 60.04C206.351 60.04 205.681 60.21 205.081 60.55C204.481 60.89 203.961 61.41 203.521 62.11C203.561 62.31 203.591 62.52 203.611 62.74C203.631 62.96 203.641 63.18 203.641 63.4V73H200.671V63.91C200.671 62.71 200.351 61.77 199.711 61.09C199.091 60.39 198.241 60.04 197.161 60.04C196.441 60.04 195.791 60.2 195.211 60.52C194.631 60.82 194.131 61.28 193.711 61.9V73H190.711ZM225.869 73.27C224.369 73.27 223.009 72.92 221.789 72.22C220.589 71.52 219.629 70.57 218.909 69.37C218.209 68.17 217.859 66.83 217.859 65.35C217.859 63.89 218.199 62.57 218.879 61.39C219.559 60.19 220.479 59.24 221.639 58.54C222.799 57.82 224.089 57.46 225.509 57.46C226.929 57.46 228.189 57.82 229.289 58.54C230.389 59.24 231.259 60.2 231.899 61.42C232.559 62.62 232.889 63.98 232.889 65.5V66.34H220.859C221.019 67.18 221.329 67.93 221.789 68.59C222.269 69.25 222.869 69.77 223.589 70.15C224.329 70.53 225.129 70.72 225.989 70.72C226.729 70.72 227.439 70.61 228.119 70.39C228.819 70.15 229.399 69.81 229.859 69.37L231.779 71.26C230.879 71.94 229.949 72.45 228.989 72.79C228.049 73.11 227.009 73.27 225.869 73.27ZM220.889 64.09H229.919C229.799 63.29 229.519 62.59 229.079 61.99C228.659 61.37 228.129 60.89 227.489 60.55C226.869 60.19 226.189 60.01 225.449 60.01C224.689 60.01 223.989 60.18 223.349 60.52C222.709 60.86 222.169 61.34 221.729 61.96C221.309 62.56 221.029 63.27 220.889 64.09ZM238.318 73.21C237.798 73.21 237.348 73.03 236.968 72.67C236.608 72.29 236.428 71.84 236.428 71.32C236.428 70.8 236.608 70.36 236.968 70C237.348 69.62 237.798 69.43 238.318 69.43C238.838 69.43 239.278 69.62 239.638 70C240.018 70.36 240.208 70.8 240.208 71.32C240.208 71.84 240.018 72.29 239.638 72.67C239.278 73.03 238.838 73.21 238.318 73.21ZM12.24 123.33C10.68 123.33 9.23 123.06 7.89 122.52C6.57 121.96 5.4 121.19 4.38 120.21C3.38 119.21 2.6 118.06 2.04 116.76C1.5 115.44 1.23 114.02 1.23 112.5C1.23 110.98 1.5 109.57 2.04 108.27C2.6 106.95 3.38 105.8 4.38 104.82C5.4 103.82 6.58 103.05 7.92 102.51C9.26 101.95 10.7 101.67 12.24 101.67C13.34 101.67 14.41 101.82 15.45 102.12C16.51 102.4 17.48 102.81 18.36 103.35C19.26 103.89 20.04 104.54 20.7 105.3L18.6 107.46C17.82 106.52 16.87 105.81 15.75 105.33C14.63 104.83 13.46 104.58 12.24 104.58C11.12 104.58 10.08 104.78 9.12 105.18C8.18 105.58 7.36 106.14 6.66 106.86C5.96 107.56 5.41 108.39 5.01 109.35C4.63 110.31 4.44 111.36 4.44 112.5C4.44 113.62 4.63 114.66 5.01 115.62C5.41 116.58 5.97 117.42 6.69 118.14C7.41 118.86 8.25 119.42 9.21 119.82C10.17 120.22 11.21 120.42 12.33 120.42C13.55 120.42 14.7 120.18 15.78 119.7C16.88 119.2 17.81 118.5 18.57 117.6L20.64 119.7C19.94 120.44 19.14 121.09 18.24 121.65C17.36 122.19 16.4 122.61 15.36 122.91C14.34 123.19 13.3 123.33 12.24 123.33ZM24.8618 123V102L27.8618 101.43V123H24.8618ZM40.215 123.27C38.715 123.27 37.355 122.92 36.135 122.22C34.935 121.52 33.975 120.57 33.255 119.37C32.555 118.17 32.205 116.83 32.205 115.35C32.205 113.89 32.545 112.57 33.225 111.39C33.905 110.19 34.825 109.24 35.985 108.54C37.145 107.82 38.435 107.46 39.855 107.46C41.275 107.46 42.535 107.82 43.635 108.54C44.735 109.24 45.605 110.2 46.245 111.42C46.905 112.62 47.235 113.98 47.235 115.5V116.34H35.205C35.365 117.18 35.675 117.93 36.135 118.59C36.615 119.25 37.215 119.77 37.935 120.15C38.675 120.53 39.475 120.72 40.335 120.72C41.075 120.72 41.785 120.61 42.465 120.39C43.165 120.15 43.745 119.81 44.205 119.37L46.125 121.26C45.225 121.94 44.295 122.45 43.335 122.79C42.395 123.11 41.355 123.27 40.215 123.27ZM35.235 114.09H44.265C44.145 113.29 43.865 112.59 43.425 111.99C43.005 111.37 42.475 110.89 41.835 110.55C41.215 110.19 40.535 110.01 39.795 110.01C39.035 110.01 38.335 110.18 37.695 110.52C37.055 110.86 36.515 111.34 36.075 111.96C35.655 112.56 35.375 113.27 35.235 114.09ZM56.2172 123.27C55.1172 123.27 54.1472 123.08 53.3072 122.7C52.4672 122.3 51.8072 121.75 51.3272 121.05C50.8472 120.35 50.6072 119.54 50.6072 118.62C50.6072 117.18 51.1572 116.05 52.2572 115.23C53.3572 114.39 54.8672 113.97 56.7872 113.97C58.2872 113.97 59.6772 114.26 60.9572 114.84V113.22C60.9572 112.12 60.6372 111.3 59.9972 110.76C59.3772 110.22 58.4572 109.95 57.2372 109.95C56.5372 109.95 55.8072 110.06 55.0472 110.28C54.2872 110.48 53.4372 110.8 52.4972 111.24L51.3872 108.99C52.5472 108.45 53.6272 108.06 54.6272 107.82C55.6272 107.56 56.6372 107.43 57.6572 107.43C59.6372 107.43 61.1672 107.9 62.2472 108.84C63.3472 109.78 63.8972 111.12 63.8972 112.86V123H60.9572V121.68C60.2772 122.22 59.5472 122.62 58.7672 122.88C57.9872 123.14 57.1372 123.27 56.2172 123.27ZM53.4872 118.56C53.4872 119.3 53.7972 119.9 54.4172 120.36C55.0572 120.8 55.8872 121.02 56.9072 121.02C57.7072 121.02 58.4372 120.91 59.0972 120.69C59.7772 120.45 60.3972 120.08 60.9572 119.58V117C60.3772 116.66 59.7672 116.42 59.1272 116.28C58.5072 116.12 57.8072 116.04 57.0272 116.04C55.9272 116.04 55.0572 116.27 54.4172 116.73C53.7972 117.17 53.4872 117.78 53.4872 118.56ZM68.854 123V107.73H71.854V109.29C73.034 108.05 74.564 107.43 76.444 107.43C77.624 107.43 78.654 107.68 79.534 108.18C80.434 108.68 81.134 109.38 81.634 110.28C82.154 111.18 82.414 112.22 82.414 113.4V123H79.414V113.91C79.414 112.71 79.074 111.77 78.394 111.09C77.734 110.39 76.804 110.04 75.604 110.04C74.804 110.04 74.084 110.21 73.444 110.55C72.804 110.89 72.274 111.38 71.854 112.02V123H68.854ZM86.4155 127.29L88.2755 120.3H91.4555L88.6955 127.29H86.4155ZM109.395 123.3C108.075 123.3 106.835 123.11 105.675 122.73C104.535 122.33 103.545 121.77 102.705 121.05L104.355 119.07C105.135 119.69 105.935 120.17 106.755 120.51C107.595 120.83 108.445 120.99 109.305 120.99C110.385 120.99 111.265 120.78 111.945 120.36C112.625 119.94 112.965 119.39 112.965 118.71C112.965 118.15 112.765 117.71 112.365 117.39C111.965 117.07 111.345 116.85 110.505 116.73L107.745 116.34C106.225 116.12 105.085 115.65 104.325 114.93C103.565 114.21 103.185 113.25 103.185 112.05C103.185 111.13 103.435 110.33 103.935 109.65C104.435 108.95 105.135 108.41 106.035 108.03C106.935 107.63 107.985 107.43 109.185 107.43C110.285 107.43 111.345 107.59 112.365 107.91C113.385 108.23 114.365 108.73 115.305 109.41L113.775 111.39C112.935 110.83 112.115 110.42 111.315 110.16C110.535 109.9 109.745 109.77 108.945 109.77C108.025 109.77 107.285 109.97 106.725 110.37C106.165 110.75 105.885 111.25 105.885 111.87C105.885 112.43 106.075 112.87 106.455 113.19C106.855 113.49 107.505 113.7 108.405 113.82L111.165 114.21C112.685 114.43 113.835 114.9 114.615 115.62C115.395 116.32 115.785 117.27 115.785 118.47C115.785 119.39 115.505 120.22 114.945 120.96C114.385 121.68 113.625 122.25 112.665 122.67C111.705 123.09 110.615 123.3 109.395 123.3ZM119.59 123V107.73H122.59V123H119.59ZM121.09 105.27C120.59 105.27 120.16 105.09 119.8 104.73C119.44 104.35 119.26 103.91 119.26 103.41C119.26 102.89 119.44 102.46 119.8 102.12C120.16 101.76 120.59 101.58 121.09 101.58C121.61 101.58 122.05 101.76 122.41 102.12C122.77 102.46 122.95 102.89 122.95 103.41C122.95 103.91 122.77 104.35 122.41 104.73C122.05 105.09 121.61 105.27 121.09 105.27ZM127.624 123V107.73H130.624V109.2C131.764 108.02 133.194 107.43 134.914 107.43C135.954 107.43 136.874 107.66 137.674 108.12C138.494 108.58 139.144 109.2 139.624 109.98C140.264 109.14 141.014 108.51 141.874 108.09C142.734 107.65 143.704 107.43 144.784 107.43C145.924 107.43 146.914 107.68 147.754 108.18C148.614 108.68 149.284 109.38 149.764 110.28C150.264 111.18 150.514 112.22 150.514 113.4V123H147.514V113.91C147.514 112.71 147.194 111.77 146.554 111.09C145.934 110.39 145.084 110.04 144.004 110.04C143.264 110.04 142.594 110.21 141.994 110.55C141.394 110.89 140.874 111.41 140.434 112.11C140.474 112.31 140.504 112.52 140.524 112.74C140.544 112.96 140.554 113.18 140.554 113.4V123H137.584V113.91C137.584 112.71 137.264 111.77 136.624 111.09C136.004 110.39 135.154 110.04 134.074 110.04C133.354 110.04 132.704 110.2 132.124 110.52C131.544 110.82 131.044 111.28 130.624 111.9V123H127.624ZM155.461 129.12V107.73H158.431V109.2C159.711 108.06 161.271 107.49 163.111 107.49C164.551 107.49 165.851 107.84 167.011 108.54C168.191 109.24 169.121 110.18 169.801 111.36C170.481 112.54 170.821 113.87 170.821 115.35C170.821 116.83 170.471 118.17 169.771 119.37C169.091 120.55 168.161 121.49 166.981 122.19C165.821 122.89 164.511 123.24 163.051 123.24C162.211 123.24 161.401 123.11 160.621 122.85C159.841 122.57 159.121 122.18 158.461 121.68V129.12H155.461ZM162.721 120.63C163.701 120.63 164.571 120.4 165.331 119.94C166.111 119.48 166.731 118.86 167.191 118.08C167.651 117.28 167.881 116.38 167.881 115.38C167.881 114.38 167.651 113.48 167.191 112.68C166.731 111.88 166.111 111.25 165.331 110.79C164.571 110.33 163.701 110.1 162.721 110.1C161.861 110.1 161.061 110.26 160.321 110.58C159.581 110.9 158.961 111.35 158.461 111.93V118.83C158.961 119.39 159.581 119.83 160.321 120.15C161.081 120.47 161.881 120.63 162.721 120.63ZM175.184 123V102L178.184 101.43V123H175.184ZM190.537 123.27C189.037 123.27 187.677 122.92 186.457 122.22C185.257 121.52 184.297 120.57 183.577 119.37C182.877 118.17 182.527 116.83 182.527 115.35C182.527 113.89 182.867 112.57 183.547 111.39C184.227 110.19 185.147 109.24 186.307 108.54C187.467 107.82 188.757 107.46 190.177 107.46C191.597 107.46 192.857 107.82 193.957 108.54C195.057 109.24 195.927 110.2 196.567 111.42C197.227 112.62 197.557 113.98 197.557 115.5V116.34H185.527C185.687 117.18 185.997 117.93 186.457 118.59C186.937 119.25 187.537 119.77 188.257 120.15C188.997 120.53 189.797 120.72 190.657 120.72C191.397 120.72 192.107 120.61 192.787 120.39C193.487 120.15 194.067 119.81 194.527 119.37L196.447 121.26C195.547 121.94 194.617 122.45 193.657 122.79C192.717 123.11 191.677 123.27 190.537 123.27ZM185.557 114.09H194.587C194.467 113.29 194.187 112.59 193.747 111.99C193.327 111.37 192.797 110.89 192.157 110.55C191.537 110.19 190.857 110.01 190.117 110.01C189.357 110.01 188.657 110.18 188.017 110.52C187.377 110.86 186.837 111.34 186.397 111.96C185.977 112.56 185.697 113.27 185.557 114.09ZM214.514 123.27C213.414 123.27 212.444 123.08 211.604 122.7C210.764 122.3 210.104 121.75 209.624 121.05C209.144 120.35 208.904 119.54 208.904 118.62C208.904 117.18 209.454 116.05 210.554 115.23C211.654 114.39 213.164 113.97 215.084 113.97C216.584 113.97 217.974 114.26 219.254 114.84V113.22C219.254 112.12 218.934 111.3 218.294 110.76C217.674 110.22 216.754 109.95 215.534 109.95C214.834 109.95 214.104 110.06 213.344 110.28C212.584 110.48 211.734 110.8 210.794 111.24L209.684 108.99C210.844 108.45 211.924 108.06 212.924 107.82C213.924 107.56 214.934 107.43 215.954 107.43C217.934 107.43 219.464 107.9 220.544 108.84C221.644 109.78 222.194 111.12 222.194 112.86V123H219.254V121.68C218.574 122.22 217.844 122.62 217.064 122.88C216.284 123.14 215.434 123.27 214.514 123.27ZM211.784 118.56C211.784 119.3 212.094 119.9 212.714 120.36C213.354 120.8 214.184 121.02 215.204 121.02C216.004 121.02 216.734 120.91 217.394 120.69C218.074 120.45 218.694 120.08 219.254 119.58V117C218.674 116.66 218.064 116.42 217.424 116.28C216.804 116.12 216.104 116.04 215.324 116.04C214.224 116.04 213.354 116.27 212.714 116.73C212.094 117.17 211.784 117.78 211.784 118.56ZM227.151 123V107.73H230.151V109.29C231.331 108.05 232.861 107.43 234.741 107.43C235.921 107.43 236.951 107.68 237.831 108.18C238.731 108.68 239.431 109.38 239.931 110.28C240.451 111.18 240.711 112.22 240.711 113.4V123H237.711V113.91C237.711 112.71 237.371 111.77 236.691 111.09C236.031 110.39 235.101 110.04 233.901 110.04C233.101 110.04 232.381 110.21 231.741 110.55C231.101 110.89 230.571 111.38 230.151 112.02V123H227.151ZM252.692 123.24C251.272 123.24 249.972 122.89 248.792 122.19C247.612 121.49 246.682 120.55 246.002 119.37C245.322 118.17 244.982 116.83 244.982 115.35C244.982 113.87 245.322 112.54 246.002 111.36C246.702 110.18 247.642 109.24 248.822 108.54C250.002 107.84 251.312 107.49 252.752 107.49C253.592 107.49 254.402 107.62 255.182 107.88C255.962 108.14 256.682 108.52 257.342 109.02V102L260.342 101.43V123H257.372V121.53C256.072 122.67 254.512 123.24 252.692 123.24ZM253.082 120.63C253.962 120.63 254.762 120.47 255.482 120.15C256.222 119.83 256.842 119.37 257.342 118.77V111.9C256.842 111.34 256.222 110.9 255.482 110.58C254.762 110.24 253.962 110.07 253.082 110.07C252.122 110.07 251.252 110.3 250.472 110.76C249.692 111.22 249.072 111.85 248.612 112.65C248.152 113.43 247.922 114.32 247.922 115.32C247.922 116.32 248.152 117.22 248.612 118.02C249.072 118.82 249.692 119.46 250.472 119.94C251.252 120.4 252.122 120.63 253.082 120.63ZM4.05 173V160.25H0.51V157.73H4.05V155.42C4.05 153.82 4.49 152.6 5.37 151.76C6.27 150.92 7.55 150.5 9.21 150.5C9.63 150.5 10.02 150.53 10.38 150.59C10.76 150.63 11.1 150.7 11.4 150.8V153.38C11.04 153.28 10.72 153.21 10.44 153.17C10.16 153.11 9.85 153.08 9.51 153.08C8.67 153.08 8.04 153.28 7.62 153.68C7.22 154.06 7.02 154.67 7.02 155.51V157.73H11.4V160.25H7.02V173H4.05ZM19.5258 173.27C18.4258 173.27 17.4558 173.08 16.6158 172.7C15.7758 172.3 15.1158 171.75 14.6358 171.05C14.1558 170.35 13.9158 169.54 13.9158 168.62C13.9158 167.18 14.4658 166.05 15.5658 165.23C16.6658 164.39 18.1758 163.97 20.0958 163.97C21.5958 163.97 22.9858 164.26 24.2658 164.84V163.22C24.2658 162.12 23.9458 161.3 23.3058 160.76C22.6858 160.22 21.7658 159.95 20.5458 159.95C19.8458 159.95 19.1158 160.06 18.3558 160.28C17.5958 160.48 16.7458 160.8 15.8058 161.24L14.6958 158.99C15.8558 158.45 16.9358 158.06 17.9358 157.82C18.9358 157.56 19.9458 157.43 20.9658 157.43C22.9458 157.43 24.4758 157.9 25.5558 158.84C26.6558 159.78 27.2058 161.12 27.2058 162.86V173H24.2658V171.68C23.5858 172.22 22.8558 172.62 22.0758 172.88C21.2958 173.14 20.4458 173.27 19.5258 173.27ZM16.7958 168.56C16.7958 169.3 17.1058 169.9 17.7258 170.36C18.3658 170.8 19.1958 171.02 20.2158 171.02C21.0158 171.02 21.7458 170.91 22.4058 170.69C23.0858 170.45 23.7058 170.08 24.2658 169.58V167C23.6858 166.66 23.0758 166.42 22.4358 166.28C21.8158 166.12 21.1158 166.04 20.3358 166.04C19.2358 166.04 18.3658 166.27 17.7258 166.73C17.1058 167.17 16.7958 167.78 16.7958 168.56ZM37.4126 173.3C36.0926 173.3 34.8526 173.11 33.6926 172.73C32.5526 172.33 31.5626 171.77 30.7226 171.05L32.3726 169.07C33.1526 169.69 33.9526 170.17 34.7726 170.51C35.6126 170.83 36.4626 170.99 37.3226 170.99C38.4026 170.99 39.2826 170.78 39.9626 170.36C40.6426 169.94 40.9826 169.39 40.9826 168.71C40.9826 168.15 40.7826 167.71 40.3826 167.39C39.9826 167.07 39.3626 166.85 38.5226 166.73L35.7626 166.34C34.2426 166.12 33.1026 165.65 32.3426 164.93C31.5826 164.21 31.2026 163.25 31.2026 162.05C31.2026 161.13 31.4526 160.33 31.9526 159.65C32.4526 158.95 33.1526 158.41 34.0526 158.03C34.9526 157.63 36.0026 157.43 37.2026 157.43C38.3026 157.43 39.3626 157.59 40.3826 157.91C41.4026 158.23 42.3826 158.73 43.3226 159.41L41.7926 161.39C40.9526 160.83 40.1326 160.42 39.3326 160.16C38.5526 159.9 37.7626 159.77 36.9626 159.77C36.0426 159.77 35.3026 159.97 34.7426 160.37C34.1826 160.75 33.9026 161.25 33.9026 161.87C33.9026 162.43 34.0926 162.87 34.4726 163.19C34.8726 163.49 35.5226 163.7 36.4226 163.82L39.1826 164.21C40.7026 164.43 41.8526 164.9 42.6326 165.62C43.4126 166.32 43.8026 167.27 43.8026 168.47C43.8026 169.39 43.5226 170.22 42.9626 170.96C42.4026 171.68 41.6426 172.25 40.6826 172.67C39.7226 173.09 38.6326 173.3 37.4126 173.3ZM53.8549 173.27C52.3749 173.27 51.2449 172.93 50.4649 172.25C49.6849 171.55 49.2949 170.54 49.2949 169.22V160.25H46.0549V157.73H49.2949V153.83L52.2649 153.11V157.73H56.7649V160.25H52.2649V168.53C52.2649 169.31 52.4349 169.87 52.7749 170.21C53.1349 170.53 53.7149 170.69 54.5149 170.69C54.9349 170.69 55.3049 170.66 55.6249 170.6C55.9649 170.54 56.3249 170.45 56.7049 170.33V172.85C56.3049 172.99 55.8349 173.09 55.2949 173.15C54.7749 173.23 54.2949 173.27 53.8549 173.27ZM62.4551 173.21C61.9351 173.21 61.4851 173.03 61.1051 172.67C60.7451 172.29 60.5651 171.84 60.5651 171.32C60.5651 170.8 60.7451 170.36 61.1051 170C61.4851 169.62 61.9351 169.43 62.4551 169.43C62.9751 169.43 63.4151 169.62 63.7751 170C64.1551 170.36 64.3451 170.8 64.3451 171.32C64.3451 171.84 64.1551 172.29 63.7751 172.67C63.4151 173.03 62.9751 173.21 62.4551 173.21Z" fill="black"/>
</svg>
